<?xml version="1.0" encoding="UTF-8" standalone="no"?>
<svg
   width="1588.736"
   height="397.81424"
   viewBox="0 0 1588.7359 397.81424"
   version="1.1"
   xml:space="preserve"
   style="clip-rule:evenodd;fill-rule:evenodd;stroke-linejoin:round;stroke-miterlimit:2"
   id="svg6"
   sodipodi:docname="gamelist-metadata-background-retro-extended-tall.svg"
   inkscape:version="1.3.2 (091e20e, 2023-11-25, custom)"
   inkscape:export-filename="gamelist-metadata-background-retro-extended-tall.png"
   inkscape:export-xdpi="96"
   inkscape:export-ydpi="96"
   xmlns:inkscape="http://www.inkscape.org/namespaces/inkscape"
   xmlns:sodipodi="http://sodipodi.sourceforge.net/DTD/sodipodi-0.dtd"
   xmlns="http://www.w3.org/2000/svg"
   xmlns:svg="http://www.w3.org/2000/svg"><defs
   id="defs6"><inkscape:path-effect
     effect="fillet_chamfer"
     id="path-effect19"
     is_visible="true"
     lpeversion="1"
     nodesatellites_param="F,0,0,1,0,30,0,1 @ F,0,0,1,0,30,0,1 @ F,0,0,1,0,30,0,1 @ F,0,0,1,0,30,0,1"
     radius="30"
     unit="px"
     method="auto"
     mode="F"
     chamfer_steps="1"
     flexible="false"
     use_knot_distance="true"
     apply_no_radius="true"
     apply_with_radius="true"
     only_selected="false"
     hide_knots="false" /><inkscape:path-effect
     effect="fillet_chamfer"
     id="path-effect18"
     is_visible="true"
     lpeversion="1"
     nodesatellites_param="F,0,0,1,0,30,0,1 @ F,0,0,1,0,30,0,1 @ F,0,0,1,0,30,0,1 @ F,0,0,1,0,30,0,1"
     radius="30"
     unit="px"
     method="auto"
     mode="F"
     chamfer_steps="1"
     flexible="false"
     use_knot_distance="true"
     apply_no_radius="true"
     apply_with_radius="true"
     only_selected="false"
     hide_knots="false" /><inkscape:path-effect
     effect="fillet_chamfer"
     id="path-effect17"
     is_visible="true"
     lpeversion="1"
     nodesatellites_param="F,0,0,1,0,30,0,1 @ F,0,0,1,0,30,0,1 @ F,0,0,1,0,30,0,1 @ F,0,0,1,0,30,0,1"
     radius="30"
     unit="px"
     method="auto"
     mode="F"
     chamfer_steps="1"
     flexible="false"
     use_knot_distance="true"
     apply_no_radius="true"
     apply_with_radius="true"
     only_selected="false"
     hide_knots="false" /><inkscape:path-effect
     effect="fillet_chamfer"
     id="path-effect16"
     is_visible="true"
     lpeversion="1"
     nodesatellites_param="F,0,0,1,0,30,0,1 @ F,0,0,1,0,30,0,1 @ F,0,0,1,0,30,0,1 @ F,0,0,1,0,30,0,1"
     radius="30"
     unit="px"
     method="auto"
     mode="F"
     chamfer_steps="1"
     flexible="false"
     use_knot_distance="true"
     apply_no_radius="true"
     apply_with_radius="true"
     only_selected="false"
     hide_knots="false" /><inkscape:path-effect
     effect="fillet_chamfer"
     id="path-effect15"
     is_visible="true"
     lpeversion="1"
     nodesatellites_param="F,0,0,1,0,30,0,1 @ F,0,0,1,0,30,0,1 @ F,0,0,1,0,30,0,1 @ F,0,0,1,0,30,0,1"
     radius="30"
     unit="px"
     method="auto"
     mode="F"
     chamfer_steps="1"
     flexible="false"
     use_knot_distance="true"
     apply_no_radius="true"
     apply_with_radius="true"
     only_selected="false"
     hide_knots="false" /><inkscape:path-effect
     effect="fillet_chamfer"
     id="path-effect14"
     is_visible="true"
     lpeversion="1"
     nodesatellites_param="F,0,0,1,0,30,0,1 @ F,0,0,1,0,30,0,1 @ F,0,0,1,0,30,0,1 @ F,0,0,1,0,30,0,1"
     radius="30"
     unit="px"
     method="auto"
     mode="F"
     chamfer_steps="1"
     flexible="false"
     use_knot_distance="true"
     apply_no_radius="true"
     apply_with_radius="true"
     only_selected="false"
     hide_knots="false" /><inkscape:path-effect
     effect="fillet_chamfer"
     id="path-effect13"
     is_visible="true"
     lpeversion="1"
     nodesatellites_param="F,0,0,1,0,30,0,1 @ F,0,0,1,0,30,0,1 @ F,0,0,1,0,30,0,1 @ F,0,0,1,0,30,0,1"
     radius="30"
     unit="px"
     method="auto"
     mode="F"
     chamfer_steps="1"
     flexible="false"
     use_knot_distance="true"
     apply_no_radius="true"
     apply_with_radius="true"
     only_selected="false"
     hide_knots="false" /><inkscape:path-effect
     effect="fillet_chamfer"
     id="path-effect12"
     is_visible="true"
     lpeversion="1"
     nodesatellites_param="F,0,0,1,0,30,0,1 @ F,0,0,1,0,30,0,1 @ F,0,0,1,0,30,0,1 @ F,0,0,1,0,30,0,1"
     radius="0"
     unit="px"
     method="auto"
     mode="F"
     chamfer_steps="1"
     flexible="false"
     use_knot_distance="true"
     apply_no_radius="true"
     apply_with_radius="true"
     only_selected="false"
     hide_knots="false" /><inkscape:path-effect
     effect="fillet_chamfer"
     id="path-effect32"
     is_visible="true"
     lpeversion="1"
     nodesatellites_param="F,0,0,1,0,30,0,1 @ F,0,0,1,0,30,0,1 @ F,0,0,1,0,30,0,1 @ F,0,0,1,0,30,0,1"
     radius="30"
     unit="px"
     method="auto"
     mode="F"
     chamfer_steps="1"
     flexible="false"
     use_knot_distance="true"
     apply_no_radius="true"
     apply_with_radius="true"
     only_selected="false"
     hide_knots="false" /><inkscape:path-effect
     effect="fillet_chamfer"
     id="path-effect8"
     is_visible="true"
     lpeversion="1"
     nodesatellites_param="F,0,0,1,0,30,0,1 @ F,0,0,1,0,30,0,1 @ F,0,0,1,0,30,0,1 @ F,0,0,1,0,30,0,1"
     radius="30"
     unit="px"
     method="auto"
     mode="F"
     chamfer_steps="1"
     flexible="false"
     use_knot_distance="true"
     apply_no_radius="true"
     apply_with_radius="true"
     only_selected="false"
     hide_knots="false" /><inkscape:path-effect
     effect="fillet_chamfer"
     id="path-effect1"
     is_visible="true"
     lpeversion="1"
     nodesatellites_param="F,0,0,1,0,12,0,1 @ F,0,0,1,0,12,0,1 @ F,0,0,1,0,12,0,1 @ F,0,0,1,0,12,0,1"
     radius="12"
     unit="px"
     method="auto"
     mode="F"
     chamfer_steps="1"
     flexible="false"
     use_knot_distance="true"
     apply_no_radius="true"
     apply_with_radius="true"
     only_selected="false"
     hide_knots="false" /><inkscape:path-effect
     effect="fillet_chamfer"
     id="path-effect3"
     is_visible="true"
     lpeversion="1"
     nodesatellites_param="F,0,0,1,0,10,0,1 @ F,0,0,1,0,10,0,1 @ F,0,0,1,0,10,0,1 @ F,0,0,1,0,10,0,1"
     radius="10"
     unit="px"
     method="auto"
     mode="F"
     chamfer_steps="1"
     flexible="false"
     use_knot_distance="true"
     apply_no_radius="true"
     apply_with_radius="true"
     only_selected="false"
     hide_knots="false" /><inkscape:path-effect
     effect="fillet_chamfer"
     id="path-effect3-5"
     is_visible="true"
     lpeversion="1"
     nodesatellites_param="F,0,0,1,0,10,0,1 @ F,0,0,1,0,10,0,1 @ F,0,0,1,0,10,0,1 @ F,0,0,1,0,10,0,1"
     radius="10"
     unit="px"
     method="auto"
     mode="F"
     chamfer_steps="1"
     flexible="false"
     use_knot_distance="true"
     apply_no_radius="true"
     apply_with_radius="true"
     only_selected="false"
     hide_knots="false" /><inkscape:path-effect
     effect="fillet_chamfer"
     id="path-effect7"
     is_visible="true"
     lpeversion="1"
     nodesatellites_param="F,0,0,1,0,30,0,1 @ F,0,0,1,0,30,0,1 @ F,0,0,1,0,30,0,1 @ F,0,0,1,0,30,0,1"
     radius="30"
     unit="px"
     method="auto"
     mode="F"
     chamfer_steps="1"
     flexible="false"
     use_knot_distance="true"
     apply_no_radius="true"
     apply_with_radius="true"
     only_selected="false"
     hide_knots="false" /><inkscape:path-effect
     effect="fillet_chamfer"
     id="path-effect6"
     is_visible="true"
     lpeversion="1"
     nodesatellites_param="F,0,0,1,0,30,0,1 @ F,0,0,1,0,30,0,1 @ F,0,0,1,0,30,0,1 @ F,0,0,1,0,30,0,1"
     radius="30"
     unit="px"
     method="auto"
     mode="F"
     chamfer_steps="1"
     flexible="false"
     use_knot_distance="true"
     apply_no_radius="true"
     apply_with_radius="true"
     only_selected="false"
     hide_knots="false" /><inkscape:path-effect
     effect="fillet_chamfer"
     id="path-effect5"
     is_visible="true"
     lpeversion="1"
     nodesatellites_param="F,0,0,1,0,30,0,1 @ F,0,0,1,0,30,0,1 @ F,0,0,1,0,30,0,1 @ F,0,0,1,0,30,0,1"
     radius="30"
     unit="px"
     method="auto"
     mode="F"
     chamfer_steps="1"
     flexible="false"
     use_knot_distance="true"
     apply_no_radius="true"
     apply_with_radius="true"
     only_selected="false"
     hide_knots="false" /><inkscape:path-effect
     effect="fillet_chamfer"
     id="path-effect2"
     is_visible="true"
     lpeversion="1"
     nodesatellites_param="F,0,0,1,0,30,0,1 @ F,0,0,1,0,30,0,1 @ F,0,0,1,0,30,0,1 @ F,0,0,1,0,30,0,1"
     radius="30"
     unit="px"
     method="auto"
     mode="F"
     chamfer_steps="1"
     flexible="false"
     use_knot_distance="true"
     apply_no_radius="true"
     apply_with_radius="true"
     only_selected="false"
     hide_knots="false" /><inkscape:path-effect
     effect="fillet_chamfer"
     id="path-effect4"
     is_visible="true"
     lpeversion="1"
     nodesatellites_param="F,0,0,1,0,30,0,1 @ F,0,0,1,0,30,0,1 @ F,0,0,1,0,30,0,1 @ F,0,0,1,0,30,0,1"
     radius="30"
     unit="px"
     method="auto"
     mode="F"
     chamfer_steps="1"
     flexible="false"
     use_knot_distance="true"
     apply_no_radius="true"
     apply_with_radius="true"
     only_selected="false"
     hide_knots="false" /><inkscape:path-effect
     effect="fillet_chamfer"
     id="path-effect9"
     is_visible="true"
     lpeversion="1"
     nodesatellites_param="F,0,0,1,0,30,0,1 @ F,0,0,1,0,30,0,1 @ F,0,0,1,0,30,0,1 @ F,0,0,1,0,30,0,1"
     radius="30"
     unit="px"
     method="auto"
     mode="F"
     chamfer_steps="1"
     flexible="false"
     use_knot_distance="true"
     apply_no_radius="true"
     apply_with_radius="true"
     only_selected="false"
     hide_knots="false" /><inkscape:path-effect
     effect="fillet_chamfer"
     id="path-effect10"
     is_visible="true"
     lpeversion="1"
     nodesatellites_param="F,0,0,1,0,30,0,1 @ F,0,0,1,0,30,0,1 @ F,0,0,1,0,30,0,1 @ F,0,0,1,0,30,0,1"
     radius="30"
     unit="px"
     method="auto"
     mode="F"
     chamfer_steps="1"
     flexible="false"
     use_knot_distance="true"
     apply_no_radius="true"
     apply_with_radius="true"
     only_selected="false"
     hide_knots="false" /><inkscape:path-effect
     effect="fillet_chamfer"
     id="path-effect7-6"
     is_visible="true"
     lpeversion="1"
     nodesatellites_param="F,0,0,1,0,30,0,1 @ F,0,0,1,0,30,0,1 @ F,0,0,1,0,30,0,1 @ F,0,0,1,0,30,0,1"
     radius="30"
     unit="px"
     method="auto"
     mode="F"
     chamfer_steps="1"
     flexible="false"
     use_knot_distance="true"
     apply_no_radius="true"
     apply_with_radius="true"
     only_selected="false"
     hide_knots="false" /><inkscape:path-effect
     effect="fillet_chamfer"
     id="path-effect6-7"
     is_visible="true"
     lpeversion="1"
     nodesatellites_param="F,0,0,1,0,30,0,1 @ F,0,0,1,0,30,0,1 @ F,0,0,1,0,30,0,1 @ F,0,0,1,0,30,0,1"
     radius="30"
     unit="px"
     method="auto"
     mode="F"
     chamfer_steps="1"
     flexible="false"
     use_knot_distance="true"
     apply_no_radius="true"
     apply_with_radius="true"
     only_selected="false"
     hide_knots="false" /><inkscape:path-effect
     effect="fillet_chamfer"
     id="path-effect5-6"
     is_visible="true"
     lpeversion="1"
     nodesatellites_param="F,0,0,1,0,30,0,1 @ F,0,0,1,0,30,0,1 @ F,0,0,1,0,30,0,1 @ F,0,0,1,0,30,0,1"
     radius="30"
     unit="px"
     method="auto"
     mode="F"
     chamfer_steps="1"
     flexible="false"
     use_knot_distance="true"
     apply_no_radius="true"
     apply_with_radius="true"
     only_selected="false"
     hide_knots="false" /><inkscape:path-effect
     effect="fillet_chamfer"
     id="path-effect2-3"
     is_visible="true"
     lpeversion="1"
     nodesatellites_param="F,0,0,1,0,30,0,1 @ F,0,0,1,0,30,0,1 @ F,0,0,1,0,30,0,1 @ F,0,0,1,0,30,0,1"
     radius="30"
     unit="px"
     method="auto"
     mode="F"
     chamfer_steps="1"
     flexible="false"
     use_knot_distance="true"
     apply_no_radius="true"
     apply_with_radius="true"
     only_selected="false"
     hide_knots="false" /><inkscape:path-effect
     effect="fillet_chamfer"
     id="path-effect4-3"
     is_visible="true"
     lpeversion="1"
     nodesatellites_param="F,0,0,1,0,30,0,1 @ F,0,0,1,0,30,0,1 @ F,0,0,1,0,30,0,1 @ F,0,0,1,0,30,0,1"
     radius="30"
     unit="px"
     method="auto"
     mode="F"
     chamfer_steps="1"
     flexible="false"
     use_knot_distance="true"
     apply_no_radius="true"
     apply_with_radius="true"
     only_selected="false"
     hide_knots="false" /><inkscape:path-effect
     effect="fillet_chamfer"
     id="path-effect11"
     is_visible="true"
     lpeversion="1"
     nodesatellites_param="F,0,0,1,0,30,0,1 @ F,0,0,1,0,30,0,1 @ F,0,0,1,0,30,0,1 @ F,0,0,1,0,30,0,1"
     radius="30"
     unit="px"
     method="auto"
     mode="F"
     chamfer_steps="1"
     flexible="false"
     use_knot_distance="true"
     apply_no_radius="true"
     apply_with_radius="true"
     only_selected="false"
     hide_knots="false" /><inkscape:path-effect
     effect="fillet_chamfer"
     id="path-effect11-8"
     is_visible="true"
     lpeversion="1"
     nodesatellites_param="F,0,0,1,0,30,0,1 @ F,0,0,1,0,30,0,1 @ F,0,0,1,0,30,0,1 @ F,0,0,1,0,30,0,1"
     radius="30"
     unit="px"
     method="auto"
     mode="F"
     chamfer_steps="1"
     flexible="false"
     use_knot_distance="true"
     apply_no_radius="true"
     apply_with_radius="true"
     only_selected="false"
     hide_knots="false" /><inkscape:path-effect
     effect="fillet_chamfer"
     id="path-effect5-3"
     is_visible="true"
     lpeversion="1"
     nodesatellites_param="F,0,0,1,0,30,0,1 @ F,0,0,1,0,30,0,1 @ F,0,0,1,0,30,0,1 @ F,0,0,1,0,30,0,1"
     radius="30"
     unit="px"
     method="auto"
     mode="F"
     chamfer_steps="1"
     flexible="false"
     use_knot_distance="true"
     apply_no_radius="true"
     apply_with_radius="true"
     only_selected="false"
     hide_knots="false" /><inkscape:path-effect
     effect="fillet_chamfer"
     id="path-effect21"
     is_visible="true"
     lpeversion="1"
     nodesatellites_param="F,0,0,1,0,30,0,1 @ F,0,0,1,0,30,0,1 @ F,0,0,1,0,30,0,1 @ F,0,0,1,0,30,0,1"
     radius="30"
     unit="px"
     method="auto"
     mode="F"
     chamfer_steps="1"
     flexible="false"
     use_knot_distance="true"
     apply_no_radius="true"
     apply_with_radius="true"
     only_selected="false"
     hide_knots="false" /></defs><sodipodi:namedview
   id="namedview6"
   pagecolor="#505050"
   bordercolor="#eeeeee"
   borderopacity="1"
   inkscape:showpageshadow="0"
   inkscape:pageopacity="0"
   inkscape:pagecheckerboard="0"
   inkscape:deskcolor="#505050"
   inkscape:zoom="0.58127313"
   inkscape:cx="1316.9368"
   inkscape:cy="-253.75334"
   inkscape:window-width="3840"
   inkscape:window-height="2126"
   inkscape:window-x="-11"
   inkscape:window-y="-11"
   inkscape:window-maximized="1"
   inkscape:current-layer="svg6" />
    <path
   style="clip-rule:evenodd;fill:#dedede;fill-opacity:0.85000002;fill-rule:evenodd;stroke-width:0;stroke-linejoin:round;stroke-miterlimit:2"
   id="rect20"
   width="1598.454"
   height="105"
   x="-3.6494381"
   y="-203.15205"
   transform="matrix(0.99392039,0,0,1,3.627251,203.15205)"
   inkscape:path-effect="#path-effect21"
   sodipodi:type="rect"
   d="M 26.350562,-203.15205 H 1564.8045 a 30,30 45 0 1 30,30 v 45 a 30,30 135 0 1 -30,29.999996 H 26.350562 A 30,30 45 0 1 -3.6494381,-128.15205 v -45 a 30,30 135 0 1 30.0000001,-30 z" /><g
   transform="translate(4.1601563e-6,-778.99551)"
   id="g6">
        <g
   id="gamelist-metadata-background-light-base.svg"
   transform="matrix(1,0,0,0.403846,0,925)">
            
            <clipPath
   id="_clip1">
                <rect
   x="0"
   y="0"
   width="1624"
   height="260"
   id="rect2" />
            </clipPath>
            <g
   clip-path="url(#_clip1)"
   id="g5">
                <g
   transform="matrix(0.398804,0,0,0.921986,-796.81,-1129.43)"
   id="g2">
                    
                </g>
                <g
   transform="matrix(0.418744,0,0,0.921986,-446.65266,-1129.43)"
   id="g3">
                    
                </g>
                <g
   transform="matrix(0.62815648,0,0,0.921986,-405.06079,-1129.43)"
   id="g4">
                    
                </g>
            </g>
        </g>
    </g><path
   style="clip-rule:evenodd;fill:#dedede;fill-opacity:0.85000002;fill-rule:evenodd;stroke-width:0;stroke-linejoin:round;stroke-miterlimit:2"
   id="rect5"
   width="1286.8306"
   height="99.780975"
   x="433.53113"
   y="299.34293"
   transform="matrix(0.89268629,0,0,1.0523048,52.992712,-168.994)"
   inkscape:path-effect="#path-effect18"
   sodipodi:type="rect"
   d="M 463.53113,299.34293 H 1690.3617 a 30,30 45 0 1 30,30 v 39.78097 a 30,30 135 0 1 -30,30 H 463.53113 a 30,30 45 0 1 -30,-30 v -39.78097 a 30,30 135 0 1 30,-30 z" /><path
   style="clip-rule:evenodd;fill:#dedede;fill-opacity:0.85000002;fill-rule:evenodd;stroke-width:0;stroke-linejoin:round;stroke-miterlimit:2"
   id="rect1-2-6"
   width="400"
   height="105"
   x="389.99799"
   y="146.006"
   inkscape:path-effect="#path-effect5"
   sodipodi:type="rect"
   d="m 419.99799,146.006 340,0 a 30,30 45 0 1 30,30 v 45 a 30,30 135 0 1 -30,30 l -340,0 a 30,30 45 0 1 -30,-30 v -45 a 30,30 135 0 1 30,-30 z"
   transform="translate(-389.99799,146.006)" /><path
   style="clip-rule:evenodd;fill:#dedede;fill-opacity:0.85000002;fill-rule:evenodd;stroke-width:0;stroke-linejoin:round;stroke-miterlimit:2"
   id="rect1-2-6-5"
   width="400"
   height="105"
   x="389.99799"
   y="146.006"
   inkscape:path-effect="#path-effect5-3"
   sodipodi:type="rect"
   d="m 419.99799,146.006 340,0 a 30,30 45 0 1 30,30 v 45 a 30,30 135 0 1 -30,30 l -340,0 a 30,30 45 0 1 -30,-30 v -45 a 30,30 135 0 1 30,-30 z"
   transform="translate(-389.99799)" />
<rect
   x="935.05054"
   y="168.6367"
   width="1.4692135"
   height="58.768539"
   style="clip-rule:evenodd;fill:#514689;fill-opacity:0.9137255;fill-rule:evenodd;stroke-width:1.46921;stroke-linejoin:round;stroke-miterlimit:2"
   id="rect10"
   transform="translate(-392.46208)" /><path
   d="m 883.63547,168.63671 c 0.64351,0 1.26352,0.15867 1.81301,0.46721 l 23.46334,9.926 c 1.28409,0.54361 2.14505,1.67197 2.22439,3.16175 0.65527,10.96327 -3.34981,34.87031 -25.64072,44.71992 -0.56124,0.32029 -1.3076,0.50541 -1.86002,0.49366 -0.66409,0.0147 -1.3076,-0.17337 -1.97462,-0.49366 -22.18513,-9.84961 -26.18433,-33.75665 -25.54081,-44.71992 0.0823,-1.48978 0.94911,-2.61814 2.23614,-3.16175 l 23.45453,-9.926 c 0.55242,-0.30854 1.18418,-0.47309 1.82476,-0.46721 z m 1.12542,41.71097 11.26005,-11.45399 c 3.21464,-3.31748 3.01776,-8.83879 -0.69935,-11.94764 -3.0207,-2.72099 -7.64578,-2.21558 -10.5607,0.80219 l -1.11367,1.10191 -1.20475,-1.10191 c -2.81208,-3.01777 -7.54001,-3.52318 -10.66355,-0.80219 -3.61427,3.10885 -3.81114,8.63016 -0.59651,11.94764 l 11.06612,11.45399 c 0.80219,0.70228 1.9041,0.70228 2.51236,0 z"
   style="clip-rule:evenodd;fill:#514689;fill-opacity:0.9137255;fill-rule:nonzero;stroke-width:1.46921;stroke-linejoin:round;stroke-miterlimit:2"
   id="path16-0"
   transform="translate(-392.46208)" /><rect
   x="105.87189"
   y="21.496634"
   width="1.50397"
   height="60.158802"
   style="clip-rule:evenodd;fill:#514689;fill-opacity:0.913725;fill-rule:evenodd;stroke-width:1.50397;stroke-linejoin:round;stroke-miterlimit:2"
   id="rect8-4"
   transform="translate(-4)" /><path
   style="clip-rule:evenodd;fill:#dedede;fill-opacity:0.85000002;fill-rule:evenodd;stroke-width:0;stroke-linejoin:round;stroke-miterlimit:2"
   id="rect4"
   width="555.67682"
   height="105.80224"
   x="1747.8875"
   y="145.37056"
   transform="matrix(0.99764464,0,0,1,-709.40255,146.64144)"
   inkscape:path-effect="#path-effect15"
   sodipodi:type="rect"
   d="m 1777.8875,145.37056 h 495.6768 a 30,30 45 0 1 30,30 v 45.80224 a 30,30 135 0 1 -30,30 h -495.6768 a 30,30 45 0 1 -30,-30 v -45.80224 a 30,30 135 0 1 30,-30 z" /><path
   style="clip-rule:evenodd;fill:#dedede;fill-opacity:0.85000002;fill-rule:evenodd;stroke-width:0;stroke-linejoin:round;stroke-miterlimit:2"
   id="rect4-82"
   width="555.67682"
   height="105.80224"
   x="1747.8875"
   y="145.37056"
   transform="matrix(0.99764464,0,0,1,-1303.7705,146.64144)"
   inkscape:path-effect="#path-effect14"
   sodipodi:type="rect"
   d="m 1777.8875,145.37056 h 495.6768 a 30,30 45 0 1 30,30 v 45.80224 a 30,30 135 0 1 -30,30 h -495.6768 a 30,30 45 0 1 -30,-30 v -45.80224 a 30,30 135 0 1 30,-30 z" /><path
   d="m 68.833912,26.98528 c 13.83108,0 25.04339,11.133098 25.04339,24.866472 0,13.44726 -10.74999,24.401463 -24.182447,24.852049 l -0.860943,0.01444 H 47.38331 c -13.831078,0 -25.043368,-11.133097 -25.043368,-24.866467 0,-13.447262 10.749982,-24.401465 24.182427,-24.852056 l 0.860941,-0.01444 z m -0.886829,26.642647 c -2.469835,0 -4.472026,1.988054 -4.472026,4.440438 0,2.452391 2.002191,4.440445 4.472026,4.440445 2.469836,0 4.472036,-1.988054 4.472036,-4.440445 0,-2.452384 -2.0022,-4.440438 -4.472036,-4.440438 z M 43.798114,41.194692 c -1.358415,0 -2.481053,1.002311 -2.658716,2.302742 l -0.02453,0.361524 v 5.321425 l -5.366424,0.0025 c -1.481903,0 -2.683228,1.192832 -2.683228,2.664264 0,1.348812 1.009447,2.463529 2.31914,2.639944 l 0.364088,0.02433 5.366424,-0.0025 v 5.335636 c 0,1.471433 1.201326,2.664263 2.683219,2.664263 1.358415,0 2.481064,-1.002309 2.658736,-2.302738 l 0.02453,-0.361525 v -5.335639 l 5.366435,0.0025 c 1.481924,0 2.683217,-1.192834 2.683217,-2.664266 0,-1.348813 -1.009425,-2.463524 -2.319118,-2.639944 l -0.364099,-0.02433 -5.366435,-0.0025 v -5.321423 c 0,-1.471433 -1.201315,-2.664266 -2.683239,-2.664267 z m 31.304223,0 c -2.469846,0 -4.472037,1.988051 -4.472037,4.44044 0,2.452388 2.002191,4.440443 4.472037,4.440443 2.469835,0 4.472035,-1.988055 4.472035,-4.440443 0,-2.452389 -2.0022,-4.44044 -4.472035,-4.44044 z"
   id="🎨-Color"
   style="clip-rule:evenodd;fill:#514689;fill-opacity:0.913725;fill-rule:nonzero;stroke:none;stroke-width:3.56496;stroke-linejoin:round;stroke-miterlimit:2"
   transform="translate(-4)" /><rect
   x="489.81424"
   y="168.83595"
   width="1.4518352"
   height="58.07341"
   style="clip-rule:evenodd;fill:#514689;fill-opacity:0.9137255;fill-rule:evenodd;stroke-width:1.45184;stroke-linejoin:round;stroke-miterlimit:2"
   id="rect8"
   transform="translate(-389.99799,146.006)" /><path
   d="m 430.38191,201.50225 h -4.54134 c -0.74915,-0.003 -1.35602,-0.60977 -1.35892,-1.35892 v -4.54134 c 0.003,-0.74915 0.60977,-1.35602 1.35892,-1.35892 h 4.53553 c 0.74915,0.003 1.35601,0.60977 1.35892,1.35892 v 4.53553 c 0,0.74915 -0.60397,1.35892 -1.35311,1.36473 z m 12.24768,-1.35892 v -4.54134 c -0.003,-0.74915 -0.60977,-1.35602 -1.35892,-1.35892 h -4.54134 c -0.74915,0.003 -1.35601,0.60977 -1.35892,1.35892 v 4.53553 c 0.003,0.74915 0.60977,1.35601 1.35892,1.35892 h 4.53553 c 0.74915,0 1.35892,-0.60396 1.36473,-1.35311 z m 10.88876,0 v -4.54134 c -0.003,-0.74915 -0.60977,-1.35602 -1.35891,-1.35892 h -4.54134 c -0.74915,0.003 -1.35602,0.60977 -1.35892,1.35892 v 4.53553 c 0.003,0.74915 0.60977,1.35601 1.35892,1.35892 h 4.53553 c 0.74915,0 1.35892,-0.60396 1.36472,-1.35311 z m -10.88876,10.88876 v -4.54134 c -0.003,-0.74915 -0.60977,-1.35601 -1.35892,-1.35892 h -4.54134 c -0.74915,0.003 -1.35601,0.60977 -1.35892,1.35892 v 4.53553 c 0.003,0.74915 0.60977,1.35602 1.35892,1.35892 h 4.53553 c 0.74915,0 1.35892,-0.60396 1.36473,-1.35311 z m -10.88876,0 v -4.54134 c -0.003,-0.74915 -0.60978,-1.35601 -1.35892,-1.35892 h -4.54134 c -0.74915,0.003 -1.35602,0.60977 -1.35892,1.35892 v 4.53553 c 0.003,0.74915 0.60977,1.35602 1.35892,1.35892 h 4.53553 c 0.74915,0 1.35892,-0.60396 1.36473,-1.35311 z m 21.77752,0 v -4.54134 c -0.003,-0.74915 -0.60977,-1.35601 -1.35891,-1.35892 h -4.54134 c -0.74915,0.003 -1.35602,0.60977 -1.35892,1.35892 v 4.53553 c 0.003,0.74915 0.60977,1.35602 1.35892,1.35892 h 4.53553 c 0.74915,0 1.35892,-0.60396 1.36472,-1.35311 z m 10.88877,-29.48967 v 39.92546 c -0.003,3.0053 -2.43618,5.43858 -5.44148,5.44148 h -39.92547 c -3.0053,0 -5.44438,-2.43618 -5.44728,-5.44148 v -39.92546 c 0,-1.44603 0.57492,-2.83108 1.59411,-3.85318 1.02209,-1.01918 2.40714,-1.59411 3.85317,-1.59411 h 5.44729 v -5.90026 c 0.003,-0.74624 0.60686,-1.35311 1.35311,-1.35892 h 4.53553 c 0.74915,0.003 1.35601,0.60977 1.35892,1.35892 v 5.90026 h 14.51835 v -5.90026 c 0.003,-0.75205 0.61267,-1.35892 1.36473,-1.35892 h 4.53553 c 0.74915,0.003 1.35601,0.60977 1.35892,1.35892 v 5.90026 h 5.44728 c 1.44603,0 2.83108,0.57493 3.85317,1.59411 1.01919,1.0221 1.59412,2.40715 1.59412,3.85318 z m -5.44148,39.2402 v -33.79873 h -39.92547 v 33.79873 c 0.003,0.37457 0.30489,0.67655 0.67946,0.67946 h 38.58978 c 0.36586,-0.0145 0.65333,-0.3136 0.65623,-0.67946 z"
   style="clip-rule:evenodd;fill:#514689;fill-opacity:0.9137255;fill-rule:nonzero;stroke-width:1.45184;stroke-linejoin:round;stroke-miterlimit:2"
   id="path14"
   transform="translate(-389.99799,146.006)" /><rect
   x="1848.9025"
   y="22.895966"
   width="1.5215758"
   height="60.863029"
   style="clip-rule:evenodd;fill:#514689;fill-opacity:0.9137255;fill-rule:evenodd;stroke-width:1.52158;stroke-linejoin:round;stroke-miterlimit:2"
   id="rect13"
   transform="translate(-1309.999,292.012)" /><rect
   x="1848.9025"
   y="167.44568"
   width="1.5215758"
   height="60.863029"
   style="clip-rule:evenodd;fill:#514689;fill-opacity:0.9137255;fill-rule:evenodd;stroke-width:1.52158;stroke-linejoin:round;stroke-miterlimit:2"
   id="rect14"
   transform="translate(-715.6308,146.64144)" /><path
   d="m 1790.3216,28.98226 c 6.6782,0 12.1726,5.49442 12.1726,12.17262 0,6.67819 -5.4944,12.1726 -12.1726,12.1726 -6.6782,0 -12.1726,-5.49441 -12.1726,-12.1726 0,-6.6782 5.4944,-12.17262 12.1726,-12.17262 z m -4.3456,28.90995 h 8.6912 c 1.9598,0 3.842,0.33321 5.5918,0.94185 -0.5219,1.62657 -0.8079,3.34747 -0.8079,5.14444 0,5.65875 2.8058,10.66017 7.1133,13.69419 h -34.7208 c -1.5596,0 -2.824,-1.26443 -2.824,-2.82404 0,-9.36682 7.5896,-16.95644 16.9564,-16.95644 z m 16.5182,6.08629 c 0,-7.51201 6.1822,-13.69417 13.6942,-13.69417 7.512,0 13.6942,6.18216 13.6942,13.69418 0,7.51202 -6.1822,13.69418 -13.6942,13.69418 -7.512,0 -13.6942,-6.18216 -13.6942,-13.69419 z m 13.6942,-7.60787 c -0.8369,0 -1.5216,0.68471 -1.5216,1.52158 v 6.08629 c 0,0.83688 0.6847,1.52159 1.5216,1.52159 h 4.5647 c 0.8369,0 1.5216,-0.68471 1.5216,-1.52159 0,-0.83686 -0.6847,-1.52157 -1.5216,-1.52157 h -3.0431 v -4.56472 c 0,-0.83687 -0.6847,-1.52158 -1.5216,-1.52158 z"
   style="clip-rule:evenodd;fill:#514689;fill-opacity:0.9137255;fill-rule:nonzero;stroke-width:1.52158;stroke-linejoin:round;stroke-miterlimit:2"
   id="path19"
   transform="translate(-1309.999,292.012)" /><path
   d="m 1772.8235,171.2496 c 2.1043,0 3.8039,1.6996 3.8039,3.80394 v 39.94137 c 0,1.04684 0.8567,1.90197 1.902,1.90197 h 47.5493 c 2.1043,0 3.8039,1.6996 3.8039,3.80393 0,2.10434 -1.6996,3.80394 -3.8039,3.80394 h -47.5493 c -5.254,0 -9.5098,-4.25584 -9.5098,-9.50984 v -39.94137 c 0,-2.10434 1.6996,-3.80394 3.8039,-3.80394 z m 15.2158,22.82364 c 2.1043,0 3.8039,1.6996 3.8039,3.80394 v 7.60788 c 0,2.10434 -1.6996,3.80394 -3.8039,3.80394 -2.1044,0 -3.804,-1.6996 -3.804,-3.80394 v -7.60788 c 0,-2.10434 1.6996,-3.80394 3.804,-3.80394 z m 15.2157,-7.60788 v 19.0197 c 0,2.10434 -1.6996,3.80394 -3.8039,3.80394 -2.1044,0 -3.804,-1.6996 -3.804,-3.80394 v -19.0197 c 0,-2.10434 1.6996,-3.80394 3.804,-3.80394 2.1043,0 3.8039,1.6996 3.8039,3.80394 z m 7.6079,3.80394 c 2.1043,0 3.8039,1.6996 3.8039,3.80394 v 11.41182 c 0,2.10434 -1.6996,3.80394 -3.8039,3.80394 -2.1043,0 -3.8039,-1.6996 -3.8039,-3.80394 v -11.41182 c 0,-2.10434 1.6996,-3.80394 3.8039,-3.80394 z m 15.2158,-11.41182 v 26.62758 c 0,2.10434 -1.6996,3.80394 -3.804,3.80394 -2.1043,0 -3.8039,-1.6996 -3.8039,-3.80394 v -26.62758 c 0,-2.10434 1.6996,-3.80394 3.8039,-3.80394 2.1044,0 3.804,1.6996 3.804,3.80394 z"
   style="clip-rule:evenodd;fill:#514689;fill-opacity:0.9137255;fill-rule:nonzero;stroke-width:1.52158;stroke-linejoin:round;stroke-miterlimit:2"
   id="path20"
   transform="translate(-715.6308,146.64144)" /></svg>
