<?xml version="1.0" encoding="UTF-8" standalone="no"?>
<svg
   width="1775.9038"
   height="251.06"
   viewBox="0 0 1775.9038 251.05999"
   version="1.1"
   xml:space="preserve"
   style="clip-rule:evenodd;fill-rule:evenodd;stroke-linejoin:round;stroke-miterlimit:2"
   id="svg6"
   sodipodi:docname="gamelist-metadata-background-light-min.svg"
   inkscape:version="1.3.2 (091e20e, 2023-11-25, custom)"
   xmlns:inkscape="http://www.inkscape.org/namespaces/inkscape"
   xmlns:sodipodi="http://sodipodi.sourceforge.net/DTD/sodipodi-0.dtd"
   xmlns="http://www.w3.org/2000/svg"
   xmlns:svg="http://www.w3.org/2000/svg"><defs
   id="defs6"><inkscape:path-effect
     effect="fillet_chamfer"
     id="path-effect10"
     is_visible="true"
     lpeversion="1"
     nodesatellites_param="F,0,0,1,0,30,0,1 @ F,0,0,1,0,30,0,1 @ F,0,0,1,0,30,0,1 @ F,0,0,1,0,30,0,1"
     radius="30"
     unit="px"
     method="auto"
     mode="F"
     chamfer_steps="1"
     flexible="false"
     use_knot_distance="true"
     apply_no_radius="true"
     apply_with_radius="true"
     only_selected="false"
     hide_knots="false" /><inkscape:path-effect
     effect="fillet_chamfer"
     id="path-effect9"
     is_visible="true"
     lpeversion="1"
     nodesatellites_param="F,0,0,1,0,30,0,1 @ F,0,0,1,0,30,0,1 @ F,0,0,1,0,30,0,1 @ F,0,0,1,0,30,0,1"
     radius="30"
     unit="px"
     method="auto"
     mode="F"
     chamfer_steps="1"
     flexible="false"
     use_knot_distance="true"
     apply_no_radius="true"
     apply_with_radius="true"
     only_selected="false"
     hide_knots="false" /><inkscape:path-effect
     effect="fillet_chamfer"
     id="path-effect7"
     is_visible="true"
     lpeversion="1"
     nodesatellites_param="F,0,0,1,0,30,0,1 @ F,0,0,1,0,30,0,1 @ F,0,0,1,0,30,0,1 @ F,0,0,1,0,30,0,1"
     radius="30"
     unit="px"
     method="auto"
     mode="F"
     chamfer_steps="1"
     flexible="false"
     use_knot_distance="true"
     apply_no_radius="true"
     apply_with_radius="true"
     only_selected="false"
     hide_knots="false" /><inkscape:path-effect
     effect="fillet_chamfer"
     id="path-effect6"
     is_visible="true"
     lpeversion="1"
     nodesatellites_param="F,0,0,1,0,30,0,1 @ F,0,0,1,0,30,0,1 @ F,0,0,1,0,30,0,1 @ F,0,0,1,0,30,0,1"
     radius="30"
     unit="px"
     method="auto"
     mode="F"
     chamfer_steps="1"
     flexible="false"
     use_knot_distance="true"
     apply_no_radius="true"
     apply_with_radius="true"
     only_selected="false"
     hide_knots="false" /><inkscape:path-effect
     effect="fillet_chamfer"
     id="path-effect5"
     is_visible="true"
     lpeversion="1"
     nodesatellites_param="F,0,0,1,0,30,0,1 @ F,0,0,1,0,30,0,1 @ F,0,0,1,0,30,0,1 @ F,0,0,1,0,30,0,1"
     radius="30"
     unit="px"
     method="auto"
     mode="F"
     chamfer_steps="1"
     flexible="false"
     use_knot_distance="true"
     apply_no_radius="true"
     apply_with_radius="true"
     only_selected="false"
     hide_knots="false" /><inkscape:path-effect
     effect="fillet_chamfer"
     id="path-effect4"
     is_visible="true"
     lpeversion="1"
     nodesatellites_param="F,0,0,1,0,30,0,1 @ F,0,0,1,0,30,0,1 @ F,0,0,1,0,30,0,1 @ F,0,0,1,0,30,0,1"
     radius="30"
     unit="px"
     method="auto"
     mode="F"
     chamfer_steps="1"
     flexible="false"
     use_knot_distance="true"
     apply_no_radius="true"
     apply_with_radius="true"
     only_selected="false"
     hide_knots="false" /><inkscape:path-effect
     effect="fillet_chamfer"
     id="path-effect2"
     is_visible="true"
     lpeversion="1"
     nodesatellites_param="F,0,0,1,0,30,0,1 @ F,0,0,1,0,30,0,1 @ F,0,0,1,0,30,0,1 @ F,0,0,1,0,30,0,1"
     radius="30"
     unit="px"
     method="auto"
     mode="F"
     chamfer_steps="1"
     flexible="false"
     use_knot_distance="true"
     apply_no_radius="true"
     apply_with_radius="true"
     only_selected="false"
     hide_knots="false" /><inkscape:path-effect
     effect="fillet_chamfer"
     id="path-effect1"
     is_visible="true"
     lpeversion="1"
     nodesatellites_param="F,0,0,1,0,12,0,1 @ F,0,0,1,0,12,0,1 @ F,0,0,1,0,12,0,1 @ F,0,0,1,0,12,0,1"
     radius="12"
     unit="px"
     method="auto"
     mode="F"
     chamfer_steps="1"
     flexible="false"
     use_knot_distance="true"
     apply_no_radius="true"
     apply_with_radius="true"
     only_selected="false"
     hide_knots="false" /><clipPath
     id="_clip1-9">
                <rect
   x="0"
   y="0"
   width="1624"
   height="260"
   id="rect2-0" />
            </clipPath><inkscape:path-effect
     effect="fillet_chamfer"
     id="path-effect3"
     is_visible="true"
     lpeversion="1"
     nodesatellites_param="F,0,0,1,0,10,0,1 @ F,0,0,1,0,10,0,1 @ F,0,0,1,0,10,0,1 @ F,0,0,1,0,10,0,1"
     radius="10"
     unit="px"
     method="auto"
     mode="F"
     chamfer_steps="1"
     flexible="false"
     use_knot_distance="true"
     apply_no_radius="true"
     apply_with_radius="true"
     only_selected="false"
     hide_knots="false" /><inkscape:path-effect
     effect="fillet_chamfer"
     id="path-effect3-2"
     is_visible="true"
     lpeversion="1"
     nodesatellites_param="F,0,0,1,0,10,0,1 @ F,0,0,1,0,10,0,1 @ F,0,0,1,0,10,0,1 @ F,0,0,1,0,10,0,1"
     radius="10"
     unit="px"
     method="auto"
     mode="F"
     chamfer_steps="1"
     flexible="false"
     use_knot_distance="true"
     apply_no_radius="true"
     apply_with_radius="true"
     only_selected="false"
     hide_knots="false" /><inkscape:path-effect
     effect="fillet_chamfer"
     id="path-effect8"
     is_visible="true"
     lpeversion="1"
     nodesatellites_param="F,0,0,1,0,30,0,1 @ F,0,0,1,0,30,0,1 @ F,0,0,1,0,30,0,1 @ F,0,0,1,0,30,0,1"
     radius="30"
     unit="px"
     method="auto"
     mode="F"
     chamfer_steps="1"
     flexible="false"
     use_knot_distance="true"
     apply_no_radius="true"
     apply_with_radius="true"
     only_selected="false"
     hide_knots="false" /></defs><sodipodi:namedview
   id="namedview6"
   pagecolor="#505050"
   bordercolor="#eeeeee"
   borderopacity="1"
   inkscape:showpageshadow="0"
   inkscape:pageopacity="0"
   inkscape:pagecheckerboard="0"
   inkscape:deskcolor="#505050"
   inkscape:zoom="1.1625463"
   inkscape:cx="855.4498"
   inkscape:cy="160.42372"
   inkscape:window-width="3840"
   inkscape:window-height="2126"
   inkscape:window-x="-11"
   inkscape:window-y="-11"
   inkscape:window-maximized="1"
   inkscape:current-layer="svg6" />
    <path
   style="clip-rule:evenodd;fill:#ffffff;fill-opacity:0.74902;fill-rule:evenodd;stroke-width:0;stroke-linejoin:round;stroke-miterlimit:2"
   id="rect1-2"
   width="350"
   height="105"
   x="0"
   y="146.006"
   inkscape:path-effect="#path-effect6"
   sodipodi:type="rect"
   d="m 30,146.006 h 290 a 30,30 45 0 1 30,30 v 45 a 30,30 135 0 1 -30,30 l -290,0 a 30,30 45 0 1 -30,-30 v -45 a 30,30 135 0 1 30,-30 z" /><path
   style="clip-rule:evenodd;fill:#ffffff;fill-opacity:0.74902;fill-rule:evenodd;stroke-width:0;stroke-linejoin:round;stroke-miterlimit:2"
   id="rect1-2-6"
   width="400"
   height="105"
   x="389.99799"
   y="146.006"
   inkscape:path-effect="#path-effect5"
   sodipodi:type="rect"
   d="m 419.99799,146.006 340,0 a 30,30 45 0 1 30,30 v 45 a 30,30 135 0 1 -30,30 l -340,0 a 30,30 45 0 1 -30,-30 v -45 a 30,30 135 0 1 30,-30 z" /><path
   style="clip-rule:evenodd;fill:#ffffff;fill-opacity:0.74902;fill-rule:evenodd;stroke-width:0;stroke-linejoin:round;stroke-miterlimit:2"
   id="rect4"
   width="945.90802"
   height="105"
   x="829.99597"
   y="146.006"
   inkscape:path-effect="#path-effect10"
   sodipodi:type="rect"
   d="M 859.99597,146.006 H 1745.904 a 30,30 45 0 1 30,30 v 45 a 30,30 135 0 1 -30,30 H 859.99597 a 30,30 45 0 1 -30,-30 v -45 a 30,30 135 0 1 30,-30 z" /><g
   transform="translate(0,-778.99551)"
   id="g6"
   style="fill:#ffffff">
        <g
   id="gamelist-metadata-background-light-base.svg"
   transform="matrix(1,0,0,0.403846,0,925)"
   style="fill:#ffffff">
            
            <clipPath
   id="_clip1">
                <rect
   x="0"
   y="0"
   width="1624"
   height="260"
   id="rect2" />
            </clipPath>
            <g
   clip-path="url(#_clip1)"
   id="g5"
   style="fill:#ffffff">
                <g
   transform="matrix(0.398804,0,0,0.921986,-796.81,-1129.43)"
   id="g2"
   style="fill:#ffffff">
                    
                </g>
                <g
   transform="matrix(0.418744,0,0,0.921986,-446.65266,-1129.43)"
   id="g3"
   style="fill:#ffffff">
                    
                </g>
                <g
   transform="matrix(0.62815648,0,0,0.921986,-405.06079,-1129.43)"
   id="g4"
   style="fill:#ffffff">
                    
                </g>
            </g>
        </g>
    </g>
<path
   style="clip-rule:evenodd;fill:#ffffff;fill-opacity:0.74902;fill-rule:evenodd;stroke-width:0;stroke-linejoin:round;stroke-miterlimit:2"
   id="rect3"
   width="1775.9041"
   height="105"
   x="0"
   y="0"
   inkscape:path-effect="#path-effect9"
   sodipodi:type="rect"
   d="m 30,0 h 1715.9041 a 30,30 45 0 1 30,30 v 45 a 30,30 135 0 1 -30,30 L 30,105 A 30,30 45 0 1 0,75 V 30 A 30,30 135 0 1 30,0 Z" /><rect
   x="934.48572"
   y="169.81798"
   width="1.4692135"
   height="58.768539"
   style="clip-rule:evenodd;fill:#a0a0a0;fill-rule:evenodd;stroke-width:1.46921;stroke-linejoin:round;stroke-miterlimit:2"
   id="rect10" /><path
   d="m 883.07067,169.81798 c 0.64351,0 1.26352,0.15867 1.81301,0.46721 l 23.46334,9.926 c 1.28409,0.54361 2.14505,1.67197 2.22439,3.16175 0.65527,10.96327 -3.34981,34.87031 -25.64072,44.71992 -0.56124,0.32029 -1.3076,0.50541 -1.86002,0.49366 -0.66409,0.0147 -1.3076,-0.17337 -1.97462,-0.49366 -22.18513,-9.84961 -26.18433,-33.75665 -25.54081,-44.71992 0.0823,-1.48978 0.94911,-2.61814 2.23614,-3.16175 l 23.45453,-9.926 c 0.55242,-0.30854 1.18418,-0.47309 1.82476,-0.46721 z m 1.12542,41.71097 11.26005,-11.45399 c 3.21464,-3.31748 3.01776,-8.83879 -0.69935,-11.94764 -3.0207,-2.72099 -7.64578,-2.21558 -10.5607,0.80219 l -1.11367,1.10191 -1.20475,-1.10191 c -2.81208,-3.01777 -7.54001,-3.52318 -10.66355,-0.80219 -3.61427,3.10885 -3.81114,8.63016 -0.59651,11.94764 l 11.06612,11.45399 c 0.80219,0.70228 1.9041,0.70228 2.51236,0 z"
   style="clip-rule:evenodd;fill:#a0a0a0;fill-rule:nonzero;stroke-width:1.46921;stroke-linejoin:round;stroke-miterlimit:2"
   id="path16-0" /><rect
   x="105.30709"
   y="22.677914"
   width="1.50397"
   height="60.158802"
   style="clip-rule:evenodd;fill:#a0a0a0;fill-rule:evenodd;stroke-width:1.50397;stroke-linejoin:round;stroke-miterlimit:2"
   id="rect8-4" /><path
   d="m 68.269112,28.166551 c 13.83108,0 25.04339,11.13309 25.04339,24.86647 0,13.44726 -10.74999,24.40146 -24.18245,24.85205 l -0.86094,0.0144 h -21.4506 c -13.83108,0 -25.04337,-11.1331 -25.04337,-24.86647 0,-13.44726 10.74998,-24.40146 24.18243,-24.85206 l 0.86094,-0.0144 z m -0.88683,26.64264 c -2.46983,0 -4.47202,1.98806 -4.47202,4.44044 0,2.45239 2.00219,4.44045 4.47202,4.44045 2.46984,0 4.47204,-1.98806 4.47204,-4.44045 0,-2.45238 -2.0022,-4.44044 -4.47204,-4.44044 z m -24.14897,-12.43323 c -1.35841,0 -2.48105,1.00231 -2.65871,2.30274 l -0.0245,0.36152 v 5.32143 l -5.36643,0.002 c -1.4819,0 -2.68322,1.19283 -2.68322,2.66426 0,1.34882 1.00944,2.46353 2.31914,2.63995 l 0.36408,0.0243 5.36643,-0.002 v 5.33563 c 0,1.47144 1.20132,2.66427 2.68322,2.66427 1.35841,0 2.48106,-1.00231 2.65873,-2.30274 l 0.0245,-0.36153 v -5.33564 l 5.36644,0.002 c 1.48192,0 2.68322,-1.19283 2.68322,-2.66426 0,-1.34881 -1.00943,-2.46353 -2.31912,-2.63995 l -0.3641,-0.0243 -5.36644,-0.002 v -5.32142 c 0,-1.47143 -1.20131,-2.66426 -2.68324,-2.66427 z m 31.30423,0 c -2.46985,0 -4.47204,1.98805 -4.47204,4.44044 0,2.45239 2.00219,4.44044 4.47204,4.44044 2.46983,0 4.47203,-1.98805 4.47203,-4.44044 0,-2.45239 -2.0022,-4.44044 -4.47203,-4.44044 z"
   id="🎨-Color"
   style="clip-rule:evenodd;fill:#a0a0a0;fill-opacity:1;fill-rule:nonzero;stroke:none;stroke-width:3.56496;stroke-linejoin:round;stroke-miterlimit:2" /><rect
   x="489.24945"
   y="170.01723"
   width="1.4518352"
   height="58.07341"
   style="clip-rule:evenodd;fill:#a0a0a0;fill-rule:evenodd;stroke-width:1.45184;stroke-linejoin:round;stroke-miterlimit:2"
   id="rect8" /><path
   d="m 429.81711,202.68352 h -4.54134 c -0.74915,-0.003 -1.35602,-0.60977 -1.35892,-1.35892 v -4.54134 c 0.003,-0.74915 0.60977,-1.35602 1.35892,-1.35892 h 4.53553 c 0.74915,0.003 1.35601,0.60977 1.35892,1.35892 v 4.53553 c 0,0.74915 -0.60397,1.35892 -1.35311,1.36473 z m 12.24768,-1.35892 v -4.54134 c -0.003,-0.74915 -0.60977,-1.35602 -1.35892,-1.35892 h -4.54134 c -0.74915,0.003 -1.35601,0.60977 -1.35892,1.35892 v 4.53553 c 0.003,0.74915 0.60977,1.35601 1.35892,1.35892 h 4.53553 c 0.74915,0 1.35892,-0.60396 1.36473,-1.35311 z m 10.88876,0 v -4.54134 c -0.003,-0.74915 -0.60977,-1.35602 -1.35891,-1.35892 h -4.54134 c -0.74915,0.003 -1.35602,0.60977 -1.35892,1.35892 v 4.53553 c 0.003,0.74915 0.60977,1.35601 1.35892,1.35892 h 4.53553 c 0.74915,0 1.35892,-0.60396 1.36472,-1.35311 z m -10.88876,10.88876 v -4.54134 c -0.003,-0.74915 -0.60977,-1.35601 -1.35892,-1.35892 h -4.54134 c -0.74915,0.003 -1.35601,0.60977 -1.35892,1.35892 v 4.53553 c 0.003,0.74915 0.60977,1.35602 1.35892,1.35892 h 4.53553 c 0.74915,0 1.35892,-0.60396 1.36473,-1.35311 z m -10.88876,0 v -4.54134 c -0.003,-0.74915 -0.60978,-1.35601 -1.35892,-1.35892 h -4.54134 c -0.74915,0.003 -1.35602,0.60977 -1.35892,1.35892 v 4.53553 c 0.003,0.74915 0.60977,1.35602 1.35892,1.35892 h 4.53553 c 0.74915,0 1.35892,-0.60396 1.36473,-1.35311 z m 21.77752,0 v -4.54134 c -0.003,-0.74915 -0.60977,-1.35601 -1.35891,-1.35892 h -4.54134 c -0.74915,0.003 -1.35602,0.60977 -1.35892,1.35892 v 4.53553 c 0.003,0.74915 0.60977,1.35602 1.35892,1.35892 h 4.53553 c 0.74915,0 1.35892,-0.60396 1.36472,-1.35311 z m 10.88877,-29.48967 v 39.92546 c -0.003,3.0053 -2.43618,5.43858 -5.44148,5.44148 h -39.92547 c -3.0053,0 -5.44438,-2.43618 -5.44728,-5.44148 v -39.92546 c 0,-1.44603 0.57492,-2.83108 1.59411,-3.85318 1.02209,-1.01918 2.40714,-1.59411 3.85317,-1.59411 h 5.44729 v -5.90026 c 0.003,-0.74624 0.60686,-1.35311 1.35311,-1.35892 h 4.53553 c 0.74915,0.003 1.35601,0.60977 1.35892,1.35892 v 5.90026 h 14.51835 v -5.90026 c 0.003,-0.75205 0.61267,-1.35892 1.36473,-1.35892 h 4.53553 c 0.74915,0.003 1.35601,0.60977 1.35892,1.35892 v 5.90026 h 5.44728 c 1.44603,0 2.83108,0.57493 3.85317,1.59411 1.01919,1.0221 1.59412,2.40715 1.59412,3.85318 z m -5.44148,39.2402 v -33.79873 h -39.92547 v 33.79873 c 0.003,0.37457 0.30489,0.67655 0.67946,0.67946 h 38.58978 c 0.36586,-0.0145 0.65333,-0.3136 0.65623,-0.67946 z"
   style="clip-rule:evenodd;fill:#a0a0a0;fill-rule:nonzero;stroke-width:1.45184;stroke-linejoin:round;stroke-miterlimit:2"
   id="path14" /></svg>
