<?xml version="1.0" encoding="UTF-8" standalone="no"?>
<svg
   width="1590"
   height="1817.999"
   viewBox="0 0 1590 1817.999"
   version="1.1"
   style="clip-rule:evenodd;fill-rule:evenodd;stroke-linejoin:round;stroke-miterlimit:2"
   id="svg14"
   sodipodi:docname="gamelist-background-retro-xsmall.svg"
   inkscape:export-filename="16-9-gamelist-background-dark-medium.svg"
   inkscape:export-xdpi="96"
   inkscape:export-ydpi="96"
   inkscape:version="1.3.2 (091e20e, 2023-11-25, custom)"
   xmlns:inkscape="http://www.inkscape.org/namespaces/inkscape"
   xmlns:sodipodi="http://sodipodi.sourceforge.net/DTD/sodipodi-0.dtd"
   xmlns="http://www.w3.org/2000/svg"
   xmlns:svg="http://www.w3.org/2000/svg">
  <defs
     id="defs14" />
  <sodipodi:namedview
     id="namedview14"
     pagecolor="#505050"
     bordercolor="#eeeeee"
     borderopacity="1"
     inkscape:showpageshadow="0"
     inkscape:pageopacity="0"
     inkscape:pagecheckerboard="0"
     inkscape:deskcolor="#505050"
     inkscape:zoom="0.58364198"
     inkscape:cx="1983.2364"
     inkscape:cy="1201.9355"
     inkscape:window-width="3840"
     inkscape:window-height="2126"
     inkscape:window-x="-11"
     inkscape:window-y="-11"
     inkscape:window-maximized="1"
     inkscape:current-layer="svg14"
     showguides="true">
    <sodipodi:guide
       position="1487.2131,-88.99197"
       orientation="1,0"
       id="guide1"
       inkscape:locked="false" />
  </sodipodi:namedview>
  <path
     d="M 1590,23.469035 C 1590,10.516344 1579.472,0 1566.507,0 H 23.494 C 10.527,0 0,10.516344 0,23.469035 V 1794.531 c 0,12.9516 10.527,23.468 23.494,23.468 h 1543.013 c 12.965,0 23.493,-10.5164 23.493,-23.468 z"
     style="opacity:1;fill:#dedede;fill-opacity:0.85000002;stroke-width:1.05935"
     clip-path="url(#_clip1)"
     id="path1" />
  <rect
     x="124.92587"
     y="178.62971"
     width="1339.998"
     height="1.1234567"
     clip-path="url(#_clip1)"
     id="rect1-1"
     style="clip-rule:evenodd;fill:#514689;fill-opacity:1;fill-rule:evenodd;stroke-width:1.18494;stroke-linejoin:round;stroke-miterlimit:2"
     transform="matrix(1,0,0,0.71220642,1.2719727e-4,31.77877)" />
  <rect
     x="124.92587"
     y="290.9754"
     width="1339.998"
     height="1.1234567"
     clip-path="url(#_clip1)"
     id="rect2-4"
     style="clip-rule:evenodd;fill:#514689;fill-opacity:1;fill-rule:evenodd;stroke-width:1.18494;stroke-linejoin:round;stroke-miterlimit:2"
     transform="matrix(1,0,0,0.71220642,1.2719727e-4,31.77877)" />
  <rect
     x="124.92587"
     y="403.32108"
     width="1339.998"
     height="1.1234567"
     clip-path="url(#_clip1)"
     id="rect3-8"
     style="clip-rule:evenodd;fill:#514689;fill-opacity:1;fill-rule:evenodd;stroke-width:1.18494;stroke-linejoin:round;stroke-miterlimit:2"
     transform="matrix(1,0,0,0.71220642,1.2719727e-4,31.77877)" />
  <rect
     x="124.92587"
     y="515.66669"
     width="1339.998"
     height="1.1234567"
     clip-path="url(#_clip1)"
     id="rect4-1"
     style="clip-rule:evenodd;fill:#514689;fill-opacity:1;fill-rule:evenodd;stroke-width:1.18494;stroke-linejoin:round;stroke-miterlimit:2"
     transform="matrix(1,0,0,0.71220642,1.2719727e-4,31.77877)" />
  <rect
     x="124.92587"
     y="628.01239"
     width="1339.998"
     height="1.1234567"
     clip-path="url(#_clip1)"
     id="rect5-4"
     style="clip-rule:evenodd;fill:#514689;fill-opacity:1;fill-rule:evenodd;stroke-width:1.18494;stroke-linejoin:round;stroke-miterlimit:2"
     transform="matrix(1,0,0,0.71220642,1.2719727e-4,31.77877)" />
  <rect
     x="124.92587"
     y="740.35767"
     width="1339.998"
     height="1.1234567"
     clip-path="url(#_clip1)"
     id="rect6-8"
     style="clip-rule:evenodd;fill:#514689;fill-opacity:1;fill-rule:evenodd;stroke-width:1.18494;stroke-linejoin:round;stroke-miterlimit:2"
     transform="matrix(1,0,0,0.71220642,1.2719727e-4,31.77877)" />
  <rect
     x="124.92587"
     y="852.70374"
     width="1339.998"
     height="1.1234567"
     clip-path="url(#_clip1)"
     id="rect7-5"
     style="clip-rule:evenodd;fill:#514689;fill-opacity:1;fill-rule:evenodd;stroke-width:1.18494;stroke-linejoin:round;stroke-miterlimit:2"
     transform="matrix(1,0,0,0.71220642,1.2719727e-4,31.77877)" />
  <rect
     x="124.92587"
     y="965.04938"
     width="1339.998"
     height="1.1234567"
     clip-path="url(#_clip1)"
     id="rect8-2"
     style="clip-rule:evenodd;fill:#514689;fill-opacity:1;fill-rule:evenodd;stroke-width:1.18494;stroke-linejoin:round;stroke-miterlimit:2"
     transform="matrix(1,0,0,0.71220642,1.2719727e-4,31.77877)" />
  <rect
     x="124.92587"
     y="1077.3958"
     width="1339.998"
     height="1.1234567"
     clip-path="url(#_clip1)"
     id="rect9-4"
     style="clip-rule:evenodd;fill:#514689;fill-opacity:1;fill-rule:evenodd;stroke-width:1.18494;stroke-linejoin:round;stroke-miterlimit:2"
     transform="matrix(1,0,0,0.71220642,1.2719727e-4,31.77877)" />
  <rect
     x="124.92587"
     y="1189.7357"
     width="1339.998"
     height="1.1234567"
     clip-path="url(#_clip1)"
     id="rect10-8"
     style="clip-rule:evenodd;fill:#514689;fill-opacity:1;fill-rule:evenodd;stroke-width:1.18494;stroke-linejoin:round;stroke-miterlimit:2"
     transform="matrix(1,0,0,0.71220642,1.2719727e-4,31.77877)" />
  <rect
     x="124.92587"
     y="1302.0858"
     width="1339.998"
     height="1.1234567"
     clip-path="url(#_clip1)"
     id="rect11-5"
     style="clip-rule:evenodd;fill:#514689;fill-opacity:1;fill-rule:evenodd;stroke-width:1.18494;stroke-linejoin:round;stroke-miterlimit:2"
     transform="matrix(1,0,0,0.71220642,1.2719727e-4,31.77877)" />
  <rect
     x="124.92587"
     y="1414.4366"
     width="1339.998"
     height="1.1234567"
     clip-path="url(#_clip1)"
     id="rect12-6"
     style="clip-rule:evenodd;fill:#514689;fill-opacity:1;fill-rule:evenodd;stroke-width:1.18494;stroke-linejoin:round;stroke-miterlimit:2"
     transform="matrix(1,0,0,0.71220642,1.2719727e-4,31.77877)" />
  <rect
     x="124.92587"
     y="1526.7767"
     width="1339.998"
     height="1.1234567"
     clip-path="url(#_clip1)"
     id="rect13-2"
     style="clip-rule:evenodd;fill:#514689;fill-opacity:1;fill-rule:evenodd;stroke-width:1.18494;stroke-linejoin:round;stroke-miterlimit:2"
     transform="matrix(1,0,0,0.71220642,1.2719727e-4,31.77877)" />
  <rect
     x="124.99984"
     y="1639.1223"
     width="1339.998"
     height="1.1234567"
     clip-path="url(#_clip1)"
     id="rect13-9-7"
     style="clip-rule:evenodd;fill:#514689;fill-opacity:1;fill-rule:evenodd;stroke-width:1.18494;stroke-linejoin:round;stroke-miterlimit:2"
     transform="matrix(1,0,0,0.71220642,1.2719727e-4,31.77877)" />
  <rect
     x="124.99984"
     y="1751.468"
     width="1339.998"
     height="1.1234567"
     clip-path="url(#_clip1)"
     id="rect12-8-4"
     style="clip-rule:evenodd;fill:#514689;fill-opacity:1;fill-rule:evenodd;stroke-width:1.18494;stroke-linejoin:round;stroke-miterlimit:2"
     transform="matrix(1,0,0,0.71220642,1.2719727e-4,31.77877)" />
  <rect
     x="124.99984"
     y="1863.8137"
     width="1339.998"
     height="1.1234567"
     clip-path="url(#_clip1)"
     id="rect13-7-1"
     style="clip-rule:evenodd;fill:#514689;fill-opacity:1;fill-rule:evenodd;stroke-width:1.18494;stroke-linejoin:round;stroke-miterlimit:2"
     transform="matrix(1,0,0,0.71220642,1.2719727e-4,31.77877)" />
  <rect
     x="124.92587"
     y="1526.7767"
     width="1339.998"
     height="1.1234567"
     clip-path="url(#_clip1)"
     id="rect13-2-5"
     style="clip-rule:evenodd;fill:#514689;fill-opacity:1;fill-rule:evenodd;stroke-width:1.18494;stroke-linejoin:round;stroke-miterlimit:2"
     transform="matrix(1,0,0,0.71220642,1.2719727e-4,351.8281)" />
  <rect
     x="124.99984"
     y="1639.1223"
     width="1339.998"
     height="1.1234567"
     clip-path="url(#_clip1)"
     id="rect13-9-0"
     style="clip-rule:evenodd;fill:#514689;fill-opacity:1;fill-rule:evenodd;stroke-width:1.18494;stroke-linejoin:round;stroke-miterlimit:2"
     transform="matrix(1,0,0,0.71220642,1.2719727e-4,351.8281)" />
  <rect
     x="124.99984"
     y="1751.468"
     width="1339.998"
     height="1.1234567"
     clip-path="url(#_clip1)"
     id="rect12-8-0"
     style="clip-rule:evenodd;fill:#514689;fill-opacity:1;fill-rule:evenodd;stroke-width:1.18494;stroke-linejoin:round;stroke-miterlimit:2"
     transform="matrix(1,0,0,0.71220642,1.2719727e-4,351.8281)" />
  <rect
     x="124.99984"
     y="1863.8137"
     width="1339.998"
     height="1.1234567"
     clip-path="url(#_clip1)"
     id="rect13-7-8"
     style="clip-rule:evenodd;fill:#514689;fill-opacity:1;fill-rule:evenodd;stroke-width:1.18494;stroke-linejoin:round;stroke-miterlimit:2"
     transform="matrix(1,0,0,0.71220642,1.2719727e-4,351.8281)" />
</svg>
