<?xml version="1.0" encoding="UTF-8" standalone="no"?>
<svg
   width="1538.8328"
   height="736.38391"
   viewBox="0 0 1538.8328 736.38388"
   version="1.1"
   style="clip-rule:evenodd;fill-rule:evenodd;stroke-linejoin:round;stroke-miterlimit:2"
   id="svg20"
   sodipodi:docname="gamelist-metadata-background-shadow-extended.svg"
   xml:space="preserve"
   inkscape:version="1.3.2 (091e20e, 2023-11-25, custom)"
   xmlns:inkscape="http://www.inkscape.org/namespaces/inkscape"
   xmlns:sodipodi="http://sodipodi.sourceforge.net/DTD/sodipodi-0.dtd"
   xmlns="http://www.w3.org/2000/svg"
   xmlns:svg="http://www.w3.org/2000/svg"><defs
     id="defs20"><inkscape:path-effect
       effect="fillet_chamfer"
       id="path-effect1"
       is_visible="true"
       lpeversion="1"
       nodesatellites_param="F,0,0,1,0,6,0,1 @ F,0,0,1,0,6,0,1 @ F,0,0,1,0,6,0,1 @ F,0,0,1,0,6,0,1"
       radius="6"
       unit="px"
       method="auto"
       mode="F"
       chamfer_steps="1"
       flexible="false"
       use_knot_distance="true"
       apply_no_radius="true"
       apply_with_radius="true"
       only_selected="false"
       hide_knots="false" /><inkscape:path-effect
       effect="fillet_chamfer"
       id="path-effect4"
       is_visible="true"
       lpeversion="1"
       nodesatellites_param="F,0,0,1,0,10,0,1 @ F,0,0,1,0,10,0,1 @ F,0,0,1,0,10,0,1 @ F,0,0,1,0,10,0,1"
       radius="10"
       unit="px"
       method="auto"
       mode="F"
       chamfer_steps="1"
       flexible="false"
       use_knot_distance="true"
       apply_no_radius="true"
       apply_with_radius="true"
       only_selected="false"
       hide_knots="false" /><filter
       style="color-interpolation-filters:sRGB;"
       inkscape:label="Drop Shadow"
       id="filter2"
       x="-0.037266258"
       y="-0.081321898"
       width="1.0745325"
       height="1.1626438"><feFlood
         result="flood"
         in="SourceGraphic"
         flood-opacity="0.498039"
         flood-color="rgb(0,0,0)"
         id="feFlood1" /><feGaussianBlur
         result="blur"
         in="SourceGraphic"
         stdDeviation="8"
         id="feGaussianBlur1" /><feOffset
         result="offset"
         in="blur"
         dx="0"
         dy="0"
         id="feOffset1" /><feComposite
         result="comp1"
         operator="in"
         in="flood"
         in2="offset"
         id="feComposite1" /><feComposite
         result="fbSourceGraphic"
         operator="over"
         in="SourceGraphic"
         in2="comp1"
         id="feComposite2" /><feColorMatrix
         result="fbSourceGraphicAlpha"
         in="fbSourceGraphic"
         values="0 0 0 -1 0 0 0 0 -1 0 0 0 0 -1 0 0 0 0 1 0"
         id="feColorMatrix6" /><feFlood
         id="feFlood6"
         result="flood"
         in="fbSourceGraphic"
         flood-opacity="0.498039"
         flood-color="rgb(0,0,0)" /><feGaussianBlur
         id="feGaussianBlur6"
         result="blur"
         in="fbSourceGraphic"
         stdDeviation="0.000000" /><feOffset
         id="feOffset6"
         result="offset"
         in="blur"
         dx="0.000000"
         dy="0.000000" /><feComposite
         id="feComposite6"
         result="comp1"
         operator="in"
         in="flood"
         in2="offset" /><feComposite
         id="feComposite7"
         result="fbSourceGraphic"
         operator="over"
         in="fbSourceGraphic"
         in2="comp1" /><feColorMatrix
         result="fbSourceGraphicAlpha"
         in="fbSourceGraphic"
         values="0 0 0 -1 0 0 0 0 -1 0 0 0 0 -1 0 0 0 0 1 0"
         id="feColorMatrix4" /><feFlood
         id="feFlood4"
         result="flood"
         in="fbSourceGraphic"
         flood-opacity="0.384314"
         flood-color="rgb(0,0,0)" /><feGaussianBlur
         id="feGaussianBlur4"
         result="blur"
         in="fbSourceGraphic"
         stdDeviation="15" /><feOffset
         id="feOffset4"
         result="offset"
         in="blur"
         dx="0.000000"
         dy="0.000000" /><feComposite
         id="feComposite4"
         result="comp1"
         operator="in"
         in="flood"
         in2="offset" /><feComposite
         id="feComposite5"
         result="comp2"
         operator="atop"
         in="comp1"
         in2="comp1" /></filter></defs><sodipodi:namedview
     id="namedview20"
     pagecolor="#505050"
     bordercolor="#eeeeee"
     borderopacity="1"
     inkscape:showpageshadow="0"
     inkscape:pageopacity="0"
     inkscape:pagecheckerboard="0"
     inkscape:deskcolor="#505050"
     inkscape:zoom="0.8220443"
     inkscape:cx="796.1858"
     inkscape:cy="707.3828"
     inkscape:window-width="3840"
     inkscape:window-height="2126"
     inkscape:window-x="-11"
     inkscape:window-y="-11"
     inkscape:window-maximized="1"
     inkscape:current-layer="svg20" /><g
     id="g1"
     style="clip-rule:evenodd;display:inline;fill-rule:evenodd;stroke-linejoin:round;stroke-miterlimit:2;filter:url(#filter2)"
     transform="translate(28.799999,28.800001)"><path
       d="m 370,102 c 0,-3.862 -2.89986,-7 -6.47405,-7 H 6.4740589 C 2.9035677,95 0,98.138 0,102 v 56 c 0,3.863 2.9035677,7 6.4740589,7 H 363.52595 C 367.10014,165 370,161.863 370,158 Z"
       style="mix-blend-mode:overlay;fill:#ffffff;fill-opacity:0.695275;stroke-width:0.961768"
       id="path1" /><path
       d="M 370,196.744 C 370,193.021 367.20374,190 363.76181,190 H 6.2381844 C 2.796268,190 0,193.021 0,196.744 v 56.512 C 0,256.979 2.796268,260 6.2381844,260 H 363.76181 C 367.20374,260 370,256.979 370,253.256 Z"
       style="fill:#ffffff;fill-opacity:0.69527483;stroke-width:0.961768"
       id="path2" /><path
       d="m 370,292 c 0,-3.862 -2.89986,-7 -6.47405,-7 H 6.4740589 C 2.9035677,285 0,288.138 0,292 v 56 c 0,3.863 2.9035677,7 6.4740589,7 H 363.52595 C 367.10014,355 370,351.863 370,348 Z"
       style="fill:#ffffff;fill-opacity:0.69527483;stroke-width:0.961768"
       id="path3" /><path
       d="m 1479.9702,102 c 0,-3.862 -2.8375,-7 -6.3257,-7 H 416.32599 c -3.48825,0 -6.32584,3.138 -6.32584,7 v 56 c 0,3.863 2.83759,7 6.32584,7 H 1473.6445 c 3.4882,0 6.3257,-3.137 6.3257,-7 z"
       style="fill:#ffffff;fill-opacity:0.69527483;stroke-width:0.950627"
       id="path4" /><path
       d="m 1481.2327,7 c 0,-3.862 -3.9249,-7 -8.7497,-7 H 10.019445 C 5.194565,0 1.269663,3.138 1.269663,7 v 56 c 0,3.863 3.924902,7 8.749782,7 H 1472.483 c 4.8248,0 8.7497,-3.137 8.7497,-7 z"
       style="clip-rule:evenodd;fill:#ffffff;fill-opacity:0.69527483;fill-rule:evenodd;stroke-width:1.11802;stroke-linejoin:round;stroke-miterlimit:2"
       id="path4-6" /><path
       d="m 1049.9999,197 c 0,-3.862 -2.6985,-7 -6.0233,-7 H 416.02408 C 412.69936,190 410,193.138 410,197 v 56 c 0,3.863 2.69936,7 6.02408,7 h 627.95262 c 3.3248,0 6.0233,-3.137 6.0233,-7 z"
       style="fill:#ffffff;fill-opacity:0.69527483;stroke-width:0.927477"
       id="path5" /><path
       d="m 1049.9999,292 c 0,-3.862 -2.6985,-7 -6.0233,-7 H 416.02408 C 412.69936,285 410,288.138 410,292 v 56 c 0,3.863 2.69936,7 6.02408,7 h 627.95262 c 3.3248,0 6.0233,-3.137 6.0233,-7 z"
       style="fill:#ffffff;fill-opacity:0.69527483;stroke-width:0.927477"
       id="path6" /><path
       d="m 1479.9632,197 c 0,-3.862 -3.135,-7 -6.999,-7 h -386.003 c -3.86,0 -6.999,3.138 -6.999,7 v 56 c 0,3.863 3.139,7 6.999,7 h 386.003 c 3.864,0 6.999,-3.137 6.999,-7 z"
       style="fill:#ffffff;fill-opacity:0.69527483"
       id="path7" /><path
       d="m 1479.9632,292 c 0,-3.862 -3.135,-7 -6.999,-7 h -386.003 c -3.86,0 -6.999,3.138 -6.999,7 v 56 c 0,3.863 3.139,7 6.999,7 h 386.003 c 3.864,0 6.999,-3.137 6.999,-7 z"
       style="display:inline;fill:#ffffff;fill-opacity:0.75"
       id="path8"
       sodipodi:insensitive="true" /><path
       style="clip-rule:evenodd;fill:#ffffff;fill-opacity:0.74902;fill-rule:evenodd;stroke-width:21.7131;stroke-linejoin:round;stroke-miterlimit:2"
       id="rect2"
       width="1479.963"
       height="247.062"
       x="0"
       y="378.784"
       inkscape:path-effect="#path-effect4"
       sodipodi:type="rect"
       d="m 10,378.784 1459.963,0 a 10,10 45 0 1 10,10 v 227.06199 a 10,10 135 0 1 -10,10 H 10 a 10,10 45 0 1 -10,-10 V 388.784 a 10,10 135 0 1 10,-10 z"
       transform="matrix(1,0,0,1.2142701,0,-81.162113)" /></g></svg>
