<?xml version="1.0" encoding="UTF-8" standalone="no"?>
<svg
   width="1481.2327"
   height="678.78394"
   viewBox="0 0 1481.2327 678.78391"
   version="1.1"
   style="clip-rule:evenodd;fill-rule:evenodd;stroke-linejoin:round;stroke-miterlimit:2"
   id="svg20"
   sodipodi:docname="gamelist-metadata-background-light-extended.svg"
   xml:space="preserve"
   inkscape:version="1.3.2 (091e20e, 2023-11-25, custom)"
   xmlns:inkscape="http://www.inkscape.org/namespaces/inkscape"
   xmlns:sodipodi="http://sodipodi.sourceforge.net/DTD/sodipodi-0.dtd"
   xmlns="http://www.w3.org/2000/svg"
   xmlns:svg="http://www.w3.org/2000/svg"><defs
     id="defs20"><inkscape:path-effect
       effect="fillet_chamfer"
       id="path-effect10"
       is_visible="true"
       lpeversion="1"
       nodesatellites_param="F,0,0,1,0,20,0,1 @ F,0,0,1,0,20,0,1 @ F,0,0,1,0,20,0,1 @ F,0,0,1,0,20,0,1"
       radius="20"
       unit="px"
       method="auto"
       mode="F"
       chamfer_steps="1"
       flexible="false"
       use_knot_distance="true"
       apply_no_radius="true"
       apply_with_radius="true"
       only_selected="false"
       hide_knots="false" /><inkscape:path-effect
       effect="fillet_chamfer"
       id="path-effect9"
       is_visible="true"
       lpeversion="1"
       nodesatellites_param="F,0,0,1,0,20,0,1 @ F,0,0,1,0,20,0,1 @ F,0,0,1,0,20,0,1 @ F,0,0,1,0,20,0,1"
       radius="20"
       unit="px"
       method="auto"
       mode="F"
       chamfer_steps="1"
       flexible="false"
       use_knot_distance="true"
       apply_no_radius="true"
       apply_with_radius="true"
       only_selected="false"
       hide_knots="false" /><inkscape:path-effect
       effect="fillet_chamfer"
       id="path-effect8"
       is_visible="true"
       lpeversion="1"
       nodesatellites_param="F,0,0,1,0,20,0,1 @ F,0,0,1,0,20,0,1 @ F,0,0,1,0,20,0,1 @ F,0,0,1,0,20,0,1"
       radius="20"
       unit="px"
       method="auto"
       mode="F"
       chamfer_steps="1"
       flexible="false"
       use_knot_distance="true"
       apply_no_radius="true"
       apply_with_radius="true"
       only_selected="false"
       hide_knots="false" /><inkscape:path-effect
       effect="fillet_chamfer"
       id="path-effect7"
       is_visible="true"
       lpeversion="1"
       nodesatellites_param="F,0,0,1,0,20,0,1 @ F,0,0,1,0,20,0,1 @ F,0,0,1,0,20,0,1 @ F,0,0,1,0,20,0,1"
       radius="20"
       unit="px"
       method="auto"
       mode="F"
       chamfer_steps="1"
       flexible="false"
       use_knot_distance="true"
       apply_no_radius="true"
       apply_with_radius="true"
       only_selected="false"
       hide_knots="false" /><inkscape:path-effect
       effect="fillet_chamfer"
       id="path-effect6"
       is_visible="true"
       lpeversion="1"
       nodesatellites_param="F,0,0,1,0,20,0,1 @ F,0,0,1,0,20,0,1 @ F,0,0,1,0,20,0,1 @ F,0,0,1,0,20,0,1"
       radius="20"
       unit="px"
       method="auto"
       mode="F"
       chamfer_steps="1"
       flexible="false"
       use_knot_distance="true"
       apply_no_radius="true"
       apply_with_radius="true"
       only_selected="false"
       hide_knots="false" /><inkscape:path-effect
       effect="fillet_chamfer"
       id="path-effect5"
       is_visible="true"
       lpeversion="1"
       nodesatellites_param="F,0,0,1,0,0,0,1 @ F,0,0,1,0,0,0,1 @ F,0,0,1,0,0,0,1 @ F,0,0,1,0,0,0,1 @ F,0,0,1,0,0,0,1 @ F,0,0,1,0,0,0,1 @ F,0,0,1,0,0,0,1 @ F,0,0,1,0,0,0,1"
       radius="0"
       unit="px"
       method="auto"
       mode="F"
       chamfer_steps="1"
       flexible="false"
       use_knot_distance="true"
       apply_no_radius="true"
       apply_with_radius="true"
       only_selected="false"
       hide_knots="false" /><inkscape:path-effect
       effect="fillet_chamfer"
       id="path-effect3"
       is_visible="true"
       lpeversion="1"
       nodesatellites_param="F,0,0,1,0,20,0,1 @ F,0,0,1,0,20,0,1 @ F,0,0,1,0,20,0,1 @ F,0,0,1,0,20,0,1"
       radius="20"
       unit="px"
       method="auto"
       mode="F"
       chamfer_steps="1"
       flexible="false"
       use_knot_distance="true"
       apply_no_radius="true"
       apply_with_radius="true"
       only_selected="false"
       hide_knots="false" /><inkscape:path-effect
       effect="fillet_chamfer"
       id="path-effect2"
       is_visible="true"
       lpeversion="1"
       nodesatellites_param="F,0,0,1,0,0,0,1 @ F,0,0,1,0,0,0,1 @ F,0,0,1,0,0,0,1 @ F,0,0,1,0,0,0,1 @ F,0,0,1,0,0,0,1 @ F,0,0,1,0,0,0,1 @ F,0,0,1,0,0,0,1 @ F,0,0,1,0,0,0,1"
       radius="0"
       unit="px"
       method="auto"
       mode="F"
       chamfer_steps="1"
       flexible="false"
       use_knot_distance="true"
       apply_no_radius="true"
       apply_with_radius="true"
       only_selected="false"
       hide_knots="false" /><inkscape:path-effect
       effect="fillet_chamfer"
       id="path-effect1"
       is_visible="true"
       lpeversion="1"
       nodesatellites_param="F,0,0,1,0,6,0,1 @ F,0,0,1,0,6,0,1 @ F,0,0,1,0,6,0,1 @ F,0,0,1,0,6,0,1"
       radius="6"
       unit="px"
       method="auto"
       mode="F"
       chamfer_steps="1"
       flexible="false"
       use_knot_distance="true"
       apply_no_radius="true"
       apply_with_radius="true"
       only_selected="false"
       hide_knots="false" /><inkscape:path-effect
       effect="fillet_chamfer"
       id="path-effect4"
       is_visible="true"
       lpeversion="1"
       nodesatellites_param="F,0,0,1,0,10,0,1 @ F,0,0,1,0,10,0,1 @ F,0,0,1,0,10,0,1 @ F,0,0,1,0,10,0,1"
       radius="10"
       unit="px"
       method="auto"
       mode="F"
       chamfer_steps="1"
       flexible="false"
       use_knot_distance="true"
       apply_no_radius="true"
       apply_with_radius="true"
       only_selected="false"
       hide_knots="false" /><inkscape:path-effect
       effect="fillet_chamfer"
       id="path-effect3-0"
       is_visible="true"
       lpeversion="1"
       nodesatellites_param="F,0,0,1,0,30,0,1 @ F,0,0,1,0,30,0,1 @ F,0,0,1,0,30,0,1 @ F,0,0,1,0,30,0,1"
       radius="30"
       unit="px"
       method="auto"
       mode="F"
       chamfer_steps="1"
       flexible="false"
       use_knot_distance="true"
       apply_no_radius="true"
       apply_with_radius="true"
       only_selected="false"
       hide_knots="false" /><inkscape:path-effect
       effect="fillet_chamfer"
       id="path-effect6-5"
       is_visible="true"
       lpeversion="1"
       nodesatellites_param="F,0,0,1,0,30,0,1 @ F,0,0,1,0,30,0,1 @ F,0,0,1,0,30,0,1 @ F,0,0,1,0,30,0,1"
       radius="30"
       unit="px"
       method="auto"
       mode="F"
       chamfer_steps="1"
       flexible="false"
       use_knot_distance="true"
       apply_no_radius="true"
       apply_with_radius="true"
       only_selected="false"
       hide_knots="false" /><inkscape:path-effect
       effect="fillet_chamfer"
       id="path-effect6-2"
       is_visible="true"
       lpeversion="1"
       nodesatellites_param="F,0,0,1,0,20,0,1 @ F,0,0,1,0,20,0,1 @ F,0,0,1,0,20,0,1 @ F,0,0,1,0,20,0,1"
       radius="20"
       unit="px"
       method="auto"
       mode="F"
       chamfer_steps="1"
       flexible="false"
       use_knot_distance="true"
       apply_no_radius="true"
       apply_with_radius="true"
       only_selected="false"
       hide_knots="false" /><inkscape:path-effect
       effect="fillet_chamfer"
       id="path-effect6-9"
       is_visible="true"
       lpeversion="1"
       nodesatellites_param="F,0,0,1,0,20,0,1 @ F,0,0,1,0,20,0,1 @ F,0,0,1,0,20,0,1 @ F,0,0,1,0,20,0,1"
       radius="20"
       unit="px"
       method="auto"
       mode="F"
       chamfer_steps="1"
       flexible="false"
       use_knot_distance="true"
       apply_no_radius="true"
       apply_with_radius="true"
       only_selected="false"
       hide_knots="false" /><inkscape:path-effect
       effect="fillet_chamfer"
       id="path-effect7-1"
       is_visible="true"
       lpeversion="1"
       nodesatellites_param="F,0,0,1,0,30,0,1 @ F,0,0,1,0,30,0,1 @ F,0,0,1,0,30,0,1 @ F,0,0,1,0,30,0,1"
       radius="30"
       unit="px"
       method="auto"
       mode="F"
       chamfer_steps="1"
       flexible="false"
       use_knot_distance="true"
       apply_no_radius="true"
       apply_with_radius="true"
       only_selected="false"
       hide_knots="false" /><inkscape:path-effect
       effect="fillet_chamfer"
       id="path-effect8-1"
       is_visible="true"
       lpeversion="1"
       nodesatellites_param="F,0,0,1,0,20,0,1 @ F,0,0,1,0,20,0,1 @ F,0,0,1,0,20,0,1 @ F,0,0,1,0,20,0,1"
       radius="20"
       unit="px"
       method="auto"
       mode="F"
       chamfer_steps="1"
       flexible="false"
       use_knot_distance="true"
       apply_no_radius="true"
       apply_with_radius="true"
       only_selected="false"
       hide_knots="false" /><inkscape:path-effect
       effect="fillet_chamfer"
       id="path-effect8-1-6"
       is_visible="true"
       lpeversion="1"
       nodesatellites_param="F,0,0,1,0,30,0,1 @ F,0,0,1,0,30,0,1 @ F,0,0,1,0,30,0,1 @ F,0,0,1,0,30,0,1"
       radius="30"
       unit="px"
       method="auto"
       mode="F"
       chamfer_steps="1"
       flexible="false"
       use_knot_distance="true"
       apply_no_radius="true"
       apply_with_radius="true"
       only_selected="false"
       hide_knots="false" /><inkscape:path-effect
       effect="fillet_chamfer"
       id="path-effect9-2"
       is_visible="true"
       lpeversion="1"
       nodesatellites_param="F,0,0,1,0,20,0,1 @ F,0,0,1,0,20,0,1 @ F,0,0,1,0,20,0,1 @ F,0,0,1,0,20,0,1"
       radius="20"
       unit="px"
       method="auto"
       mode="F"
       chamfer_steps="1"
       flexible="false"
       use_knot_distance="true"
       apply_no_radius="true"
       apply_with_radius="true"
       only_selected="false"
       hide_knots="false" /><inkscape:path-effect
       effect="fillet_chamfer"
       id="path-effect9-2-5"
       is_visible="true"
       lpeversion="1"
       nodesatellites_param="F,0,0,1,0,30,0,1 @ F,0,0,1,0,30,0,1 @ F,0,0,1,0,30,0,1 @ F,0,0,1,0,30,0,1"
       radius="30"
       unit="px"
       method="auto"
       mode="F"
       chamfer_steps="1"
       flexible="false"
       use_knot_distance="true"
       apply_no_radius="true"
       apply_with_radius="true"
       only_selected="false"
       hide_knots="false" /></defs><sodipodi:namedview
     id="namedview20"
     pagecolor="#505050"
     bordercolor="#eeeeee"
     borderopacity="1"
     inkscape:showpageshadow="0"
     inkscape:pageopacity="0"
     inkscape:pagecheckerboard="0"
     inkscape:deskcolor="#505050"
     inkscape:zoom="1.1625462"
     inkscape:cx="701.90759"
     inkscape:cy="419.33817"
     inkscape:window-width="3840"
     inkscape:window-height="2126"
     inkscape:window-x="-11"
     inkscape:window-y="-11"
     inkscape:window-maximized="1"
     inkscape:current-layer="svg20" /><path
     style="clip-rule:evenodd;fill:#ffffff;fill-opacity:0.74902;fill-rule:evenodd;stroke-width:0;stroke-linejoin:round;stroke-miterlimit:2"
     id="rect3"
     width="1479.963"
     height="70"
     x="1.27"
     y="0"
     inkscape:path-effect="#path-effect3"
     sodipodi:type="rect"
     d="m 21.27,0 h 1439.963 a 20,20 45 0 1 20,20 v 30 a 20,20 135 0 1 -20,20 H 21.27 A 20,20 45 0 1 1.27,50 V 20 a 20,20 135 0 1 20,-20 z" /><path
     style="clip-rule:evenodd;fill:#ffffff;fill-opacity:0.74902;fill-rule:evenodd;stroke-width:0;stroke-linejoin:round;stroke-miterlimit:2"
     id="rect3-3"
     width="370"
     height="70"
     x="-12.686873"
     y="-136.4131"
     sodipodi:type="rect"
     inkscape:path-effect="#path-effect6"
     d="M 7.3131266,-136.4131 H 337.31313 a 20,20 45 0 1 20,20 v 29.999999 a 20,20 135 0 1 -20,20 H 7.3131266 a 20,20 45 0 1 -19.9999996,-20 V -116.4131 a 20,20 135 0 1 19.9999996,-20 z"
     transform="translate(12.686873,231.4131)" /><path
     style="clip-rule:evenodd;fill:#ffffff;fill-opacity:0.74902;fill-rule:evenodd;stroke-width:0;stroke-linejoin:round;stroke-miterlimit:2"
     id="rect3-3-0"
     width="370"
     height="70"
     x="-12.686873"
     y="-136.4131"
     sodipodi:type="rect"
     inkscape:path-effect="#path-effect6-9"
     d="M 7.3131266,-136.4131 H 337.31313 a 20,20 45 0 1 20,20 v 29.999999 a 20,20 135 0 1 -20,20 H 7.3131266 a 20,20 45 0 1 -19.9999996,-20 V -116.4131 a 20,20 135 0 1 19.9999996,-20 z"
     transform="translate(12.686873,421.4131)" /><path
     style="clip-rule:evenodd;fill:#ffffff;fill-opacity:0.74902;fill-rule:evenodd;stroke-width:0;stroke-linejoin:round;stroke-miterlimit:2"
     id="rect3-3-1"
     width="370"
     height="70"
     x="-12.686873"
     y="-136.4131"
     sodipodi:type="rect"
     inkscape:path-effect="#path-effect6-2"
     d="M 7.3131266,-136.4131 H 337.31313 a 20,20 45 0 1 20,20 v 29.999999 a 20,20 135 0 1 -20,20 H 7.3131266 a 20,20 45 0 1 -19.9999996,-20 V -116.4131 a 20,20 135 0 1 19.9999996,-20 z"
     transform="translate(12.686873,326.4131)" /><path
     style="clip-rule:evenodd;fill:#ffffff;fill-opacity:0.74902;fill-rule:evenodd;stroke-width:0;stroke-linejoin:round;stroke-miterlimit:2"
     id="rect3-3-7"
     width="1069.97"
     height="70"
     x="410"
     y="95"
     sodipodi:type="rect"
     inkscape:path-effect="#path-effect7"
     d="m 430,95 h 1029.97 a 20,20 45 0 1 20,20 v 30 a 20,20 135 0 1 -20,20 H 430 a 20,20 45 0 1 -20,-20 v -30 a 20,20 135 0 1 20,-20 z" /><path
     style="clip-rule:evenodd;fill:#ffffff;fill-opacity:0.74902;fill-rule:evenodd;stroke-width:0;stroke-linejoin:round;stroke-miterlimit:2"
     id="rect3-3-7-7"
     width="640"
     height="70"
     x="410"
     y="285"
     sodipodi:type="rect"
     inkscape:path-effect="#path-effect8"
     d="m 430,285 h 600 a 20,20 45 0 1 20,20 v 30 a 20,20 135 0 1 -20,20 H 430 a 20,20 45 0 1 -20,-20 v -30 a 20,20 135 0 1 20,-20 z" /><path
     style="clip-rule:evenodd;fill:#ffffff;fill-opacity:0.74902;fill-rule:evenodd;stroke-width:0;stroke-linejoin:round;stroke-miterlimit:2"
     id="rect3-3-7-7-1"
     width="640"
     height="70"
     x="410"
     y="285"
     sodipodi:type="rect"
     inkscape:path-effect="#path-effect8-1"
     d="m 430,285 h 600 a 20,20 45 0 1 20,20 v 30 a 20,20 135 0 1 -20,20 H 430 a 20,20 45 0 1 -20,-20 v -30 a 20,20 135 0 1 20,-20 z"
     transform="translate(0,-95)" /><path
     style="clip-rule:evenodd;fill:#ffffff;fill-opacity:0.74902;fill-rule:evenodd;stroke-width:0;stroke-linejoin:round;stroke-miterlimit:2"
     id="rect3-3-7-7-1-8"
     width="400"
     height="70"
     x="1079.962"
     y="190"
     sodipodi:type="rect"
     inkscape:path-effect="#path-effect9"
     d="m 1099.962,190 h 360 a 20,20 45 0 1 20,20 v 30 a 20,20 135 0 1 -20,20 h -360 a 20,20 45 0 1 -20,-20 v -30 a 20,20 135 0 1 20,-20 z" /><path
     style="clip-rule:evenodd;fill:#ffffff;fill-opacity:0.74902;fill-rule:evenodd;stroke-width:0;stroke-linejoin:round;stroke-miterlimit:2"
     id="rect3-3-7-7-1-8-8"
     width="400"
     height="70"
     x="1079.962"
     y="190"
     sodipodi:type="rect"
     inkscape:path-effect="#path-effect9-2"
     d="m 1099.962,190 h 360 a 20,20 45 0 1 20,20 v 30 a 20,20 135 0 1 -20,20 h -360 a 20,20 45 0 1 -20,-20 v -30 a 20,20 135 0 1 20,-20 z"
     transform="translate(-3.6132813e-5,95)" /><path
     style="clip-rule:evenodd;fill:#ffffff;fill-opacity:0.74902;fill-rule:evenodd;stroke-width:0;stroke-linejoin:round;stroke-miterlimit:2"
     id="rect3-3-7-7-1-8-8-9"
     width="1479.963"
     height="300"
     x="0"
     y="378.784"
     sodipodi:type="rect"
     inkscape:path-effect="#path-effect10"
     d="m 20,378.784 h 1439.963 a 20,20 45 0 1 20,20 v 260 a 20,20 135 0 1 -20,20 L 20,678.784 a 20,20 45 0 1 -20,-20 v -260 a 20,20 135 0 1 20,-20 z" /><rect
     x="65"
     y="205"
     width="1"
     height="40"
     style="fill:#a0a0a0"
     id="rect8" /><rect
     x="65"
     y="15"
     width="1"
     height="40"
     style="clip-rule:evenodd;fill:#a0a0a0;fill-rule:evenodd;stroke-linejoin:round;stroke-miterlimit:2"
     id="rect8-4" /><rect
     x="65"
     y="300"
     width="1"
     height="40"
     style="fill:#a0a0a0"
     id="rect9" /><rect
     x="475"
     y="110"
     width="1"
     height="40"
     style="fill:#a0a0a0"
     id="rect10" /><rect
     x="475"
     y="205"
     width="1"
     height="40"
     style="fill:#a0a0a0"
     id="rect11" /><rect
     x="475"
     y="300"
     width="1"
     height="40"
     style="fill:#a0a0a0"
     id="rect12" /><rect
     x="1144.962"
     y="205"
     width="1"
     height="40"
     style="fill:#a0a0a0"
     id="rect13" /><rect
     x="1144.962"
     y="300"
     width="1"
     height="40"
     style="fill:#a0a0a0"
     id="rect14" /><path
     d="m 25.564,227.5 h -3.128 c -0.516,-0.002 -0.934,-0.42 -0.936,-0.936 v -3.128 c 0.002,-0.516 0.42,-0.934 0.936,-0.936 h 3.124 c 0.516,0.002 0.934,0.42 0.936,0.936 v 3.124 c 0,0.516 -0.416,0.936 -0.932,0.94 z M 34,226.564 v -3.128 c -0.002,-0.516 -0.42,-0.934 -0.936,-0.936 h -3.128 c -0.516,0.002 -0.934,0.42 -0.936,0.936 v 3.124 c 0.002,0.516 0.42,0.934 0.936,0.936 h 3.124 c 0.516,0 0.936,-0.416 0.94,-0.932 z m 7.5,0 v -3.128 c -0.002,-0.516 -0.42,-0.934 -0.936,-0.936 h -3.128 c -0.516,0.002 -0.934,0.42 -0.936,0.936 v 3.124 c 0.002,0.516 0.42,0.934 0.936,0.936 h 3.124 c 0.516,0 0.936,-0.416 0.94,-0.932 z m -7.5,7.5 v -3.128 C 33.998,230.42 33.58,230.002 33.064,230 h -3.128 c -0.516,0.002 -0.934,0.42 -0.936,0.936 v 3.124 c 0.002,0.516 0.42,0.934 0.936,0.936 h 3.124 c 0.516,0 0.936,-0.416 0.94,-0.932 z m -7.5,0 v -3.128 C 26.498,230.42 26.08,230.002 25.564,230 h -3.128 c -0.516,0.002 -0.934,0.42 -0.936,0.936 v 3.124 c 0.002,0.516 0.42,0.934 0.936,0.936 h 3.124 c 0.516,0 0.936,-0.416 0.94,-0.932 z m 15,0 v -3.128 C 41.498,230.42 41.08,230.002 40.564,230 h -3.128 c -0.516,0.002 -0.934,0.42 -0.936,0.936 v 3.124 c 0.002,0.516 0.42,0.934 0.936,0.936 h 3.124 c 0.516,0 0.936,-0.416 0.94,-0.932 z M 49,213.752 v 27.5 c -0.002,2.07 -1.678,3.746 -3.748,3.748 h -27.5 c -2.07,0 -3.75,-1.678 -3.752,-3.748 v -27.5 c 0,-0.996 0.396,-1.95 1.098,-2.654 0.704,-0.702 1.658,-1.098 2.654,-1.098 h 3.752 v -4.064 c 0.002,-0.514 0.418,-0.932 0.932,-0.936 h 3.124 c 0.516,0.002 0.934,0.42 0.936,0.936 V 210 h 10 v -4.064 C 36.498,205.418 36.918,205 37.436,205 h 3.124 c 0.516,0.002 0.934,0.42 0.936,0.936 V 210 h 3.752 c 0.996,0 1.95,0.396 2.654,1.098 0.702,0.704 1.098,1.658 1.098,2.654 z M 45.252,240.78 V 217.5 h -27.5 v 23.28 c 0.002,0.258 0.21,0.466 0.468,0.468 H 44.8 c 0.252,-0.01 0.45,-0.216 0.452,-0.468 z"
     style="fill:#a0a0a0;fill-rule:nonzero"
     id="path14" /><path
     d="m 25,320 c 4.42,0 8,-3.58 8,-8 0,-4.42 -3.58,-8 -8,-8 -4.42,0 -8,3.58 -8,8 0,4.42 3.58,8 8,8 z m 3.168,3 H 21.832 C 15.848,323 11,327.852 11,333.832 c 0,1.2 0.972,2.168 2.168,2.168 H 36.832 C 38.032,336 39,335.032 39,333.832 39,327.852 34.152,323 28.168,323 Z m 12.776,1 h -4.616 c 2.872,2.356 4.672,5.88 4.672,9.832 0,0.8 -0.236,1.536 -0.624,2.168 H 49 c 1.108,0 2,-0.9 2,-2.056 C 51,328.472 46.528,324 40.944,324 Z M 38,320 c 3.872,0 7,-3.128 7,-7 0,-3.868 -3.128,-7 -7,-7 -1.568,0 -3.004,0.536 -4.168,1.408 0.72,1.384 1.168,2.932 1.168,4.592 0,2.22 -0.748,4.26 -1.972,5.92 1.264,1.28 3.024,2.08 4.972,2.08 z"
     style="fill:#a0a0a0;fill-rule:nonzero"
     id="path15" /><path
     d="m 442.27085,110 c 0.438,-0.004 0.86,0.108 1.234,0.318 l 15.97,6.756 c 0.874,0.37 1.46,1.138 1.514,2.152 0.446,7.462 -2.28,23.734 -17.452,30.438 -0.382,0.218 -0.89,0.344 -1.266,0.336 -0.452,0.008 -0.89,-0.118 -1.344,-0.336 -15.1,-6.704 -17.822,-22.976 -17.384,-30.438 0.056,-1.014 0.646,-1.782 1.522,-2.152 l 15.964,-6.756 c 0.376,-0.21 0.806,-0.322 1.242,-0.318 z m 0.766,28.39 7.664,-7.796 c 2.188,-2.258 2.054,-6.016 -0.476,-8.132 -2.056,-1.852 -5.204,-1.508 -7.188,0.546 l -0.758,0.75 -0.82,-0.75 c -1.914,-2.054 -5.132,-2.398 -7.258,-0.546 -2.46,2.116 -2.594,5.874 -0.406,8.132 l 7.532,7.796 c 0.546,0.478 1.296,0.478 1.71,0 z"
     style="fill:#a0a0a0;fill-rule:nonzero"
     id="path16" /><path
     d="m 436.25,206.876 c 0,-1.04 -0.836,-1.876 -1.874,-1.876 -1.04,0 -1.876,0.836 -1.876,1.876 V 210 c -2.758,0 -5,2.242 -5,5 h -3.124 c -1.04,0 -1.876,0.836 -1.876,1.876 0,1.038 0.836,1.874 1.876,1.874 h 3.124 v 4.376 h -3.124 c -1.04,0 -1.876,0.834 -1.876,1.874 0,1.04 0.836,1.876 1.876,1.876 h 3.124 v 4.374 h -3.124 c -1.04,0 -1.876,0.836 -1.876,1.876 0,1.038 0.836,1.874 1.876,1.874 h 3.124 c 0,2.758 2.242,5 5,5 v 3.126 c 0,1.038 0.836,1.874 1.876,1.874 1.038,0 1.874,-0.836 1.874,-1.874 V 240 h 4.376 v 3.126 c 0,1.038 0.834,1.874 1.874,1.874 1.04,0 1.876,-0.836 1.876,-1.874 V 240 h 4.374 v 3.126 c 0,1.038 0.836,1.874 1.876,1.874 1.038,0 1.874,-0.836 1.874,-1.874 V 240 c 2.758,0 5,-2.242 5,-5 h 3.126 c 1.038,0 1.874,-0.836 1.874,-1.874 0,-1.04 -0.836,-1.876 -1.874,-1.876 H 457.5 v -4.374 h 3.126 c 1.038,0 1.874,-0.836 1.874,-1.876 0,-1.04 -0.836,-1.874 -1.874,-1.874 H 457.5 v -4.376 h 3.126 c 1.038,0 1.874,-0.836 1.874,-1.874 0,-1.04 -0.836,-1.876 -1.874,-1.876 H 457.5 c 0,-2.758 -2.242,-5 -5,-5 v -3.124 c 0,-1.04 -0.836,-1.876 -1.874,-1.876 -1.04,0 -1.876,0.836 -1.876,1.876 V 210 h -4.374 v -3.124 c 0,-1.04 -0.836,-1.876 -1.876,-1.876 -1.04,0 -1.874,0.836 -1.874,1.876 V 210 H 436.25 Z M 435,215 h 15 c 1.382,0 2.5,1.118 2.5,2.5 v 15 c 0,1.382 -1.118,2.5 -2.5,2.5 h -15 c -1.382,0 -2.5,-1.118 -2.5,-2.5 v -15 c 0,-1.382 1.118,-2.5 2.5,-2.5 z m 15,2.5 h -15 v 15 h 15 z"
     style="fill:#a0a0a0;fill-rule:nonzero"
     id="path17" /><path
     d="m 458.126,302.5 h -23.75 c -2.416,0 -4.376,1.964 -4.376,4.376 v 25 c 0,1.032 -0.842,1.874 -1.874,1.874 -1.034,0 -1.876,-0.844 -1.876,-1.874 V 308.75 c 0,-1.036 -0.84,-1.874 -1.874,-1.874 -1.036,0 -1.876,0.838 -1.876,1.874 v 23.126 c 0,3.1 2.524,5.624 5.626,5.624 h 27.5 c 3.79,0 6.874,-3.084 6.874,-6.874 v -23.75 c 0,-2.412 -1.96,-4.376 -4.374,-4.376 z m 0.624,28.126 c 0,1.722 -1.402,3.124 -3.124,3.124 H 433.43 c 0.202,-0.586 0.32,-1.218 0.32,-1.874 v -25 c 0,-0.346 0.28,-0.626 0.626,-0.626 h 23.75 c 0.344,0 0.624,0.28 0.624,0.626 z m -15.624,-9.376 h -5 c -1.032,0 -1.876,0.844 -1.876,1.876 0,1.03 0.844,1.874 1.876,1.874 h 5 c 1.038,0 1.874,-0.836 1.874,-1.874 0,-1.04 -0.836,-1.876 -1.874,-1.876 z m 11.25,0 h -5 c -1.032,0 -1.876,0.844 -1.876,1.876 0,1.03 0.844,1.874 1.876,1.874 h 5 c 1.034,0 1.874,-0.84 1.874,-1.874 0,-1.036 -0.836,-1.876 -1.874,-1.876 z m -11.25,6.25 h -5 c -1.036,0 -1.876,0.84 -1.876,1.876 0,1.034 0.84,1.874 1.876,1.874 h 5 c 1.034,0 1.874,-0.84 1.874,-1.874 0,-1.036 -0.836,-1.876 -1.874,-1.876 z m 11.25,0 h -5 c -1.032,0 -1.876,0.844 -1.876,1.876 0,1.03 0.84,1.874 1.876,1.874 h 5 c 1.034,0 1.874,-0.84 1.874,-1.874 0,-1.036 -0.836,-1.876 -1.874,-1.876 z m -0.626,-18.75 h -15 c -1.38,0 -2.5,1.12 -2.5,2.5 v 5 c 0,1.38 1.12,2.5 2.5,2.5 h 15 c 1.38,0 2.5,-1.12 2.5,-2.5 v -5 c 0,-1.382 -1.118,-2.5 -2.5,-2.5 z"
     style="fill:#a0a0a0;fill-rule:nonzero"
     id="path18" /><path
     d="m 1106.462,209 c 4.389,0 8,3.611 8,8 0,4.389 -3.611,8 -8,8 -4.389,0 -8,-3.611 -8,-8 0,-4.389 3.611,-8 8,-8 z m -2.856,19 h 5.712 c 1.288,0 2.525,0.219 3.675,0.619 -0.343,1.069 -0.531,2.2 -0.531,3.381 0,3.719 1.844,7.006 4.675,9 h -22.819 c -1.025,0 -1.856,-0.831 -1.856,-1.856 0,-6.156 4.988,-11.144 11.144,-11.144 z m 10.856,4 c 0,-4.937 4.063,-9 9,-9 4.937,0 9,4.063 9,9 0,4.937 -4.063,9 -9,9 -4.937,0 -9,-4.063 -9,-9 z m 9,-5 c -0.55,0 -1,0.45 -1,1 v 4 c 0,0.55 0.45,1 1,1 h 3 c 0.55,0 1,-0.45 1,-1 0,-0.55 -0.45,-1 -1,-1 h -2 v -3 c 0,-0.55 -0.45,-1 -1,-1 z"
     style="fill:#a0a0a0;fill-rule:nonzero"
     id="path19" /><path
     d="m 1094.962,302.5 c 1.383,0 2.5,1.117 2.5,2.5 v 26.25 c 0,0.688 0.563,1.25 1.25,1.25 h 31.25 c 1.383,0 2.5,1.117 2.5,2.5 0,1.383 -1.117,2.5 -2.5,2.5 h -31.25 c -3.453,0 -6.25,-2.797 -6.25,-6.25 V 305 c 0,-1.383 1.117,-2.5 2.5,-2.5 z m 10,15 c 1.383,0 2.5,1.117 2.5,2.5 v 5 c 0,1.383 -1.117,2.5 -2.5,2.5 -1.383,0 -2.5,-1.117 -2.5,-2.5 v -5 c 0,-1.383 1.117,-2.5 2.5,-2.5 z m 10,-5 V 325 c 0,1.383 -1.117,2.5 -2.5,2.5 -1.383,0 -2.5,-1.117 -2.5,-2.5 v -12.5 c 0,-1.383 1.117,-2.5 2.5,-2.5 1.383,0 2.5,1.117 2.5,2.5 z m 5,2.5 c 1.383,0 2.5,1.117 2.5,2.5 v 7.5 c 0,1.383 -1.117,2.5 -2.5,2.5 -1.383,0 -2.5,-1.117 -2.5,-2.5 v -7.5 c 0,-1.383 1.117,-2.5 2.5,-2.5 z m 10,-7.5 V 325 c 0,1.383 -1.117,2.5 -2.5,2.5 -1.383,0 -2.5,-1.117 -2.5,-2.5 v -17.5 c 0,-1.383 1.117,-2.5 2.5,-2.5 1.383,0 2.5,1.117 2.5,2.5 z"
     style="fill:#a0a0a0;fill-rule:nonzero"
     id="path20" /><path
     d="m 40.873413,20.170038 c 8.020401,0 14.522223,6.585519 14.522223,14.709169 0,7.954407 -6.233731,14.434105 -14.022976,14.700638 l -0.499247,0.0085 H 28.434576 c -8.020402,0 -14.522216,-6.585519 -14.522216,-14.709167 0,-7.954408 6.233731,-14.434105 14.022969,-14.700641 l 0.499247,-0.0085 z m -0.514256,15.759824 c -1.43222,0 -2.593256,1.175985 -2.593256,2.626635 0,1.450653 1.161036,2.626639 2.593256,2.626639 1.432212,0 2.593256,-1.175986 2.593256,-2.626639 0,-1.45065 -1.161044,-2.626635 -2.593256,-2.626635 z M 26.355583,28.575278 c -0.787716,0 -1.438721,0.592893 -1.541739,1.362131 l -0.0142,0.213851 v 3.147762 l -3.111898,0.0015 c -0.859335,0 -1.555957,0.705591 -1.555957,1.575982 0,0.797858 0.585356,1.457242 1.344823,1.561596 l 0.211134,0.01439 3.111898,-0.0015 v 3.156169 c 0,0.870391 0.69663,1.575981 1.55595,1.575981 0.787723,0 1.438728,-0.592892 1.541754,-1.362129 l 0.0142,-0.213852 V 36.45099 l 3.111906,0.0015 c 0.859335,0 1.55595,-0.705592 1.55595,-1.575984 0,-0.797858 -0.585349,-1.457238 -1.344816,-1.561596 l -0.211134,-0.01439 -3.111906,-0.0015 v -3.14776 c 0,-0.870391 -0.696622,-1.575982 -1.555957,-1.575982 z m 18.15278,0 c -1.43222,0 -2.593257,1.175984 -2.593257,2.626636 0,1.450651 1.161037,2.626638 2.593257,2.626638 1.432212,0 2.593256,-1.175987 2.593256,-2.626638 0,-1.450652 -1.161044,-2.626636 -2.593256,-2.626636 z"
     id="🎨-Color"
     style="fill:#a0a0a0;fill-opacity:1;fill-rule:nonzero;stroke:none;stroke-width:2.08791" /></svg>
