<?xml version="1.0" encoding="UTF-8" standalone="no"?>
<svg
   width="960"
   height="722.56799"
   viewBox="0 0 960.00002 722.56796"
   version="1.1"
   style="clip-rule:evenodd;fill-rule:evenodd;stroke-linejoin:round;stroke-miterlimit:2"
   id="svg20"
   sodipodi:docname="gamelist-metadata-background-dark-extended-tall.svg"
   xml:space="preserve"
   inkscape:version="1.3.2 (091e20e, 2023-11-25, custom)"
   xmlns:inkscape="http://www.inkscape.org/namespaces/inkscape"
   xmlns:sodipodi="http://sodipodi.sourceforge.net/DTD/sodipodi-0.dtd"
   xmlns="http://www.w3.org/2000/svg"
   xmlns:svg="http://www.w3.org/2000/svg"><defs
     id="defs20"><inkscape:path-effect
       effect="fillet_chamfer"
       id="path-effect19"
       is_visible="true"
       lpeversion="1"
       nodesatellites_param="F,0,0,1,0,20,0,1 @ F,0,0,1,0,20,0,1 @ F,0,0,1,0,20,0,1 @ F,0,0,1,0,20,0,1"
       radius="20"
       unit="px"
       method="auto"
       mode="F"
       chamfer_steps="1"
       flexible="false"
       use_knot_distance="true"
       apply_no_radius="true"
       apply_with_radius="true"
       only_selected="false"
       hide_knots="false" /><inkscape:path-effect
       effect="fillet_chamfer"
       id="path-effect18"
       is_visible="true"
       lpeversion="1"
       nodesatellites_param="F,0,0,1,0,20,0,1 @ F,0,0,1,0,20,0,1 @ F,0,0,1,0,20,0,1 @ F,0,0,1,0,20,0,1"
       radius="20"
       unit="px"
       method="auto"
       mode="F"
       chamfer_steps="1"
       flexible="false"
       use_knot_distance="true"
       apply_no_radius="true"
       apply_with_radius="true"
       only_selected="false"
       hide_knots="false" /><inkscape:path-effect
       effect="fillet_chamfer"
       id="path-effect16"
       is_visible="true"
       lpeversion="1"
       nodesatellites_param="F,0,0,1,0,20,0,1 @ F,0,0,1,0,20,0,1 @ F,0,0,1,0,20,0,1 @ F,0,0,1,0,20,0,1"
       radius="20"
       unit="px"
       method="auto"
       mode="F"
       chamfer_steps="1"
       flexible="false"
       use_knot_distance="true"
       apply_no_radius="true"
       apply_with_radius="true"
       only_selected="false"
       hide_knots="false" /><inkscape:path-effect
       effect="fillet_chamfer"
       id="path-effect15"
       is_visible="true"
       lpeversion="1"
       nodesatellites_param="F,0,0,1,0,20,0,1 @ F,0,0,1,0,20,0,1 @ F,0,0,1,0,20,0,1 @ F,0,0,1,0,20,0,1"
       radius="20"
       unit="px"
       method="auto"
       mode="F"
       chamfer_steps="1"
       flexible="false"
       use_knot_distance="true"
       apply_no_radius="true"
       apply_with_radius="true"
       only_selected="false"
       hide_knots="false" /><inkscape:path-effect
       effect="fillet_chamfer"
       id="path-effect11"
       is_visible="true"
       lpeversion="1"
       nodesatellites_param="F,0,0,1,0,20,0,1 @ F,0,0,1,0,20,0,1 @ F,0,0,1,0,20,0,1 @ F,0,0,1,0,20,0,1"
       radius="20"
       unit="px"
       method="auto"
       mode="F"
       chamfer_steps="1"
       flexible="false"
       use_knot_distance="true"
       apply_no_radius="true"
       apply_with_radius="true"
       only_selected="false"
       hide_knots="false" /><inkscape:path-effect
       effect="fillet_chamfer"
       id="path-effect5"
       is_visible="true"
       lpeversion="1"
       nodesatellites_param="F,0,0,1,0,20,0,1 @ F,0,0,1,0,20,0,1 @ F,0,0,1,0,20,0,1 @ F,0,0,1,0,20,0,1"
       radius="20"
       unit="px"
       method="auto"
       mode="F"
       chamfer_steps="1"
       flexible="false"
       use_knot_distance="true"
       apply_no_radius="true"
       apply_with_radius="true"
       only_selected="false"
       hide_knots="false" /><inkscape:path-effect
       effect="fillet_chamfer"
       id="path-effect2"
       is_visible="true"
       lpeversion="1"
       nodesatellites_param="F,0,0,1,0,30,0,1 @ F,0,0,1,0,30,0,1 @ F,0,0,1,0,30,0,1 @ F,0,0,1,0,30,0,1"
       radius="30"
       unit="px"
       method="auto"
       mode="F"
       chamfer_steps="1"
       flexible="false"
       use_knot_distance="true"
       apply_no_radius="true"
       apply_with_radius="true"
       only_selected="false"
       hide_knots="false" /><inkscape:path-effect
       effect="fillet_chamfer"
       id="path-effect1"
       is_visible="true"
       lpeversion="1"
       nodesatellites_param="F,0,0,1,0,6,0,1 @ F,0,0,1,0,6,0,1 @ F,0,0,1,0,6,0,1 @ F,0,0,1,0,6,0,1"
       radius="6"
       unit="px"
       method="auto"
       mode="F"
       chamfer_steps="1"
       flexible="false"
       use_knot_distance="true"
       apply_no_radius="true"
       apply_with_radius="true"
       only_selected="false"
       hide_knots="false" /><inkscape:path-effect
       effect="fillet_chamfer"
       id="path-effect4"
       is_visible="true"
       lpeversion="1"
       nodesatellites_param="F,0,0,1,0,10,0,1 @ F,0,0,1,0,10,0,1 @ F,0,0,1,0,10,0,1 @ F,0,0,1,0,10,0,1"
       radius="10"
       unit="px"
       method="auto"
       mode="F"
       chamfer_steps="1"
       flexible="false"
       use_knot_distance="true"
       apply_no_radius="true"
       apply_with_radius="true"
       only_selected="false"
       hide_knots="false" /><inkscape:path-effect
       effect="fillet_chamfer"
       id="path-effect3"
       is_visible="true"
       lpeversion="1"
       nodesatellites_param="F,0,0,1,0,20,0,1 @ F,0,0,1,0,20,0,1 @ F,0,0,1,0,20,0,1 @ F,0,0,1,0,20,0,1"
       radius="20"
       unit="px"
       method="auto"
       mode="F"
       chamfer_steps="1"
       flexible="false"
       use_knot_distance="true"
       apply_no_radius="true"
       apply_with_radius="true"
       only_selected="false"
       hide_knots="false" /><inkscape:path-effect
       effect="fillet_chamfer"
       id="path-effect6"
       is_visible="true"
       lpeversion="1"
       nodesatellites_param="F,0,0,1,0,20,0,1 @ F,0,0,1,0,20,0,1 @ F,0,0,1,0,20,0,1 @ F,0,0,1,0,20,0,1"
       radius="20"
       unit="px"
       method="auto"
       mode="F"
       chamfer_steps="1"
       flexible="false"
       use_knot_distance="true"
       apply_no_radius="true"
       apply_with_radius="true"
       only_selected="false"
       hide_knots="false" /><inkscape:path-effect
       effect="fillet_chamfer"
       id="path-effect6-9"
       is_visible="true"
       lpeversion="1"
       nodesatellites_param="F,0,0,1,0,20,0,1 @ F,0,0,1,0,20,0,1 @ F,0,0,1,0,20,0,1 @ F,0,0,1,0,20,0,1"
       radius="20"
       unit="px"
       method="auto"
       mode="F"
       chamfer_steps="1"
       flexible="false"
       use_knot_distance="true"
       apply_no_radius="true"
       apply_with_radius="true"
       only_selected="false"
       hide_knots="false" /><inkscape:path-effect
       effect="fillet_chamfer"
       id="path-effect6-2"
       is_visible="true"
       lpeversion="1"
       nodesatellites_param="F,0,0,1,0,20,0,1 @ F,0,0,1,0,20,0,1 @ F,0,0,1,0,20,0,1 @ F,0,0,1,0,20,0,1"
       radius="20"
       unit="px"
       method="auto"
       mode="F"
       chamfer_steps="1"
       flexible="false"
       use_knot_distance="true"
       apply_no_radius="true"
       apply_with_radius="true"
       only_selected="false"
       hide_knots="false" /><inkscape:path-effect
       effect="fillet_chamfer"
       id="path-effect7"
       is_visible="true"
       lpeversion="1"
       nodesatellites_param="F,0,0,1,0,20,0,1 @ F,0,0,1,0,20,0,1 @ F,0,0,1,0,20,0,1 @ F,0,0,1,0,20,0,1"
       radius="20"
       unit="px"
       method="auto"
       mode="F"
       chamfer_steps="1"
       flexible="false"
       use_knot_distance="true"
       apply_no_radius="true"
       apply_with_radius="true"
       only_selected="false"
       hide_knots="false" /><inkscape:path-effect
       effect="fillet_chamfer"
       id="path-effect8"
       is_visible="true"
       lpeversion="1"
       nodesatellites_param="F,0,0,1,0,20,0,1 @ F,0,0,1,0,20,0,1 @ F,0,0,1,0,20,0,1 @ F,0,0,1,0,20,0,1"
       radius="20"
       unit="px"
       method="auto"
       mode="F"
       chamfer_steps="1"
       flexible="false"
       use_knot_distance="true"
       apply_no_radius="true"
       apply_with_radius="true"
       only_selected="false"
       hide_knots="false" /><inkscape:path-effect
       effect="fillet_chamfer"
       id="path-effect8-1"
       is_visible="true"
       lpeversion="1"
       nodesatellites_param="F,0,0,1,0,20,0,1 @ F,0,0,1,0,20,0,1 @ F,0,0,1,0,20,0,1 @ F,0,0,1,0,20,0,1"
       radius="20"
       unit="px"
       method="auto"
       mode="F"
       chamfer_steps="1"
       flexible="false"
       use_knot_distance="true"
       apply_no_radius="true"
       apply_with_radius="true"
       only_selected="false"
       hide_knots="false" /><inkscape:path-effect
       effect="fillet_chamfer"
       id="path-effect9"
       is_visible="true"
       lpeversion="1"
       nodesatellites_param="F,0,0,1,0,20,0,1 @ F,0,0,1,0,20,0,1 @ F,0,0,1,0,20,0,1 @ F,0,0,1,0,20,0,1"
       radius="20"
       unit="px"
       method="auto"
       mode="F"
       chamfer_steps="1"
       flexible="false"
       use_knot_distance="true"
       apply_no_radius="true"
       apply_with_radius="true"
       only_selected="false"
       hide_knots="false" /><inkscape:path-effect
       effect="fillet_chamfer"
       id="path-effect9-2"
       is_visible="true"
       lpeversion="1"
       nodesatellites_param="F,0,0,1,0,20,0,1 @ F,0,0,1,0,20,0,1 @ F,0,0,1,0,20,0,1 @ F,0,0,1,0,20,0,1"
       radius="20"
       unit="px"
       method="auto"
       mode="F"
       chamfer_steps="1"
       flexible="false"
       use_knot_distance="true"
       apply_no_radius="true"
       apply_with_radius="true"
       only_selected="false"
       hide_knots="false" /><inkscape:path-effect
       effect="fillet_chamfer"
       id="path-effect10"
       is_visible="true"
       lpeversion="1"
       nodesatellites_param="F,0,0,1,0,20,0,1 @ F,0,0,1,0,20,0,1 @ F,0,0,1,0,20,0,1 @ F,0,0,1,0,20,0,1"
       radius="20"
       unit="px"
       method="auto"
       mode="F"
       chamfer_steps="1"
       flexible="false"
       use_knot_distance="true"
       apply_no_radius="true"
       apply_with_radius="true"
       only_selected="false"
       hide_knots="false" /><inkscape:path-effect
       effect="fillet_chamfer"
       id="path-effect8-8"
       is_visible="true"
       lpeversion="1"
       nodesatellites_param="F,0,0,1,0,20,0,1 @ F,0,0,1,0,20,0,1 @ F,0,0,1,0,20,0,1 @ F,0,0,1,0,20,0,1"
       radius="20"
       unit="px"
       method="auto"
       mode="F"
       chamfer_steps="1"
       flexible="false"
       use_knot_distance="true"
       apply_no_radius="true"
       apply_with_radius="true"
       only_selected="false"
       hide_knots="false" /><inkscape:path-effect
       effect="fillet_chamfer"
       id="path-effect6-9-1"
       is_visible="true"
       lpeversion="1"
       nodesatellites_param="F,0,0,1,0,20,0,1 @ F,0,0,1,0,20,0,1 @ F,0,0,1,0,20,0,1 @ F,0,0,1,0,20,0,1"
       radius="20"
       unit="px"
       method="auto"
       mode="F"
       chamfer_steps="1"
       flexible="false"
       use_knot_distance="true"
       apply_no_radius="true"
       apply_with_radius="true"
       only_selected="false"
       hide_knots="false" /><inkscape:path-effect
       effect="fillet_chamfer"
       id="path-effect8-1-2"
       is_visible="true"
       lpeversion="1"
       nodesatellites_param="F,0,0,1,0,20,0,1 @ F,0,0,1,0,20,0,1 @ F,0,0,1,0,20,0,1 @ F,0,0,1,0,20,0,1"
       radius="20"
       unit="px"
       method="auto"
       mode="F"
       chamfer_steps="1"
       flexible="false"
       use_knot_distance="true"
       apply_no_radius="true"
       apply_with_radius="true"
       only_selected="false"
       hide_knots="false" /><inkscape:path-effect
       effect="fillet_chamfer"
       id="path-effect15-4"
       is_visible="true"
       lpeversion="1"
       nodesatellites_param="F,0,0,1,0,20,0,1 @ F,0,0,1,0,20,0,1 @ F,0,0,1,0,20,0,1 @ F,0,0,1,0,20,0,1"
       radius="20"
       unit="px"
       method="auto"
       mode="F"
       chamfer_steps="1"
       flexible="false"
       use_knot_distance="true"
       apply_no_radius="true"
       apply_with_radius="true"
       only_selected="false"
       hide_knots="false" /><inkscape:path-effect
       effect="fillet_chamfer"
       id="path-effect8-0"
       is_visible="true"
       lpeversion="1"
       nodesatellites_param="F,0,0,1,0,20,0,1 @ F,0,0,1,0,20,0,1 @ F,0,0,1,0,20,0,1 @ F,0,0,1,0,20,0,1"
       radius="20"
       unit="px"
       method="auto"
       mode="F"
       chamfer_steps="1"
       flexible="false"
       use_knot_distance="true"
       apply_no_radius="true"
       apply_with_radius="true"
       only_selected="false"
       hide_knots="false" /><inkscape:path-effect
       effect="fillet_chamfer"
       id="path-effect15-4-6"
       is_visible="true"
       lpeversion="1"
       nodesatellites_param="F,0,0,1,0,20,0,1 @ F,0,0,1,0,20,0,1 @ F,0,0,1,0,20,0,1 @ F,0,0,1,0,20,0,1"
       radius="20"
       unit="px"
       method="auto"
       mode="F"
       chamfer_steps="1"
       flexible="false"
       use_knot_distance="true"
       apply_no_radius="true"
       apply_with_radius="true"
       only_selected="false"
       hide_knots="false" /><inkscape:path-effect
       effect="fillet_chamfer"
       id="path-effect15-4-6-4"
       is_visible="true"
       lpeversion="1"
       nodesatellites_param="F,0,0,1,0,20,0,1 @ F,0,0,1,0,20,0,1 @ F,0,0,1,0,20,0,1 @ F,0,0,1,0,20,0,1"
       radius="20"
       unit="px"
       method="auto"
       mode="F"
       chamfer_steps="1"
       flexible="false"
       use_knot_distance="true"
       apply_no_radius="true"
       apply_with_radius="true"
       only_selected="false"
       hide_knots="false" /></defs><sodipodi:namedview
     id="namedview20"
     pagecolor="#505050"
     bordercolor="#eeeeee"
     borderopacity="1"
     inkscape:showpageshadow="0"
     inkscape:pageopacity="0"
     inkscape:pagecheckerboard="0"
     inkscape:deskcolor="#505050"
     inkscape:zoom="0.8220443"
     inkscape:cx="1027.3169"
     inkscape:cy="352.1708"
     inkscape:window-width="3840"
     inkscape:window-height="2126"
     inkscape:window-x="-11"
     inkscape:window-y="-11"
     inkscape:window-maximized="1"
     inkscape:current-layer="svg20" /><path
     style="clip-rule:evenodd;fill:#111111;fill-opacity:0.85098;fill-rule:evenodd;stroke:#ffffff;stroke-width:0;stroke-linejoin:round;stroke-miterlimit:2"
     id="rect15"
     width="600"
     height="70.555809"
     x="426.98428"
     y="-135.02922"
     transform="matrix(0.91666667,0,0,1,18.597741,230.02922)"
     inkscape:path-effect="#path-effect15"
     sodipodi:type="rect"
     d="m 446.98428,-135.02922 h 560.00002 a 20,20 45 0 1 20,20 v 30.555808 a 20,20 135 0 1 -20,20 H 446.98428 a 20,20 45 0 1 -20,-20 v -30.555808 a 20,20 135 0 1 20,-20 z" /><path
     style="clip-rule:evenodd;fill:#111111;fill-opacity:0.85098;fill-rule:evenodd;stroke:#ffffff;stroke-width:0;stroke-linejoin:round;stroke-miterlimit:2"
     id="rect15-9"
     width="600"
     height="70.555809"
     x="426.98428"
     y="-135.02922"
     transform="matrix(0.91666667,0,0,1,18.597739,325.02922)"
     inkscape:path-effect="#path-effect15-4"
     sodipodi:type="rect"
     d="m 446.98428,-135.02922 h 560.00002 a 20,20 45 0 1 20,20 v 30.555808 a 20,20 135 0 1 -20,20 H 446.98428 a 20,20 45 0 1 -20,-20 v -30.555808 a 20,20 135 0 1 20,-20 z" /><path
     style="clip-rule:evenodd;fill:#111111;fill-opacity:0.85098;fill-rule:evenodd;stroke:#ffffff;stroke-width:0;stroke-linejoin:round;stroke-miterlimit:2"
     id="rect15-9-8"
     width="600"
     height="70.555809"
     x="426.98428"
     y="-135.02922"
     transform="matrix(0.91666667,0,0,1,18.597739,420.02922)"
     inkscape:path-effect="#path-effect15-4-6"
     sodipodi:type="rect"
     d="m 446.98428,-135.02922 h 560.00002 a 20,20 45 0 1 20,20 v 30.555808 a 20,20 135 0 1 -20,20 H 446.98428 a 20,20 45 0 1 -20,-20 v -30.555808 a 20,20 135 0 1 20,-20 z" /><path
     style="clip-rule:evenodd;fill:#111111;fill-opacity:0.85098;fill-rule:evenodd;stroke:#ffffff;stroke-width:0;stroke-linejoin:round;stroke-miterlimit:2"
     id="rect15-9-8-7"
     width="600"
     height="70.555809"
     x="426.98428"
     y="-135.02922"
     transform="matrix(0.91666667,0,0,1,18.597739,513.81322)"
     inkscape:path-effect="#path-effect15-4-6-4"
     sodipodi:type="rect"
     d="m 446.98428,-135.02922 h 560.00002 a 20,20 45 0 1 20,20 v 30.555808 a 20,20 135 0 1 -20,20 H 446.98428 a 20,20 45 0 1 -20,-20 v -30.555808 a 20,20 135 0 1 20,-20 z" /><path
     style="clip-rule:evenodd;fill:#111111;fill-opacity:0.85098;fill-rule:evenodd;stroke:#ffffff;stroke-width:0;stroke-linejoin:round;stroke-miterlimit:2"
     id="rect17"
     width="960"
     height="70"
     x="9.7318354"
     y="-138.67867"
     transform="translate(-9.7318354,138.67867)"
     inkscape:path-effect="#path-effect19"
     sodipodi:type="rect"
     d="m 29.731835,-138.67867 920.000005,0 a 20,20 45 0 1 20,20 v 30.000005 a 20,20 135 0 1 -20,20 l -920.000005,0 a 20,20 45 0 1 -19.9999996,-20 v -30.000005 a 20,20 135 0 1 19.9999996,-20 z" /><path
     style="clip-rule:evenodd;fill:#111111;fill-opacity:0.85098;fill-rule:evenodd;stroke:#ffffff;stroke-width:0;stroke-linejoin:round;stroke-miterlimit:2"
     id="rect18"
     width="960"
     height="231.1311"
     x="8.5153561"
     y="-274.92435"
     transform="matrix(1,0,0,1.0816372,-8.5153561,769.9364)"
     inkscape:path-effect="#path-effect18"
     sodipodi:type="rect"
     d="M 28.515356,-274.92435 H 948.51536 a 20,20 45 0 1 20,20 v 191.131107 a 20,20 135 0 1 -20,20 H 28.515356 a 20,20 45 0 1 -19.9999999,-20 V -254.92435 a 20,20 135 0 1 19.9999999,-20 z" /><path
     style="clip-rule:evenodd;fill:#111111;fill-opacity:0.85;fill-rule:evenodd;stroke-width:0;stroke-linejoin:round;stroke-miterlimit:2"
     id="rect3-3"
     width="370"
     height="70"
     x="-12.686873"
     y="-136.4131"
     sodipodi:type="rect"
     inkscape:path-effect="#path-effect6"
     d="M 7.3131266,-136.4131 H 337.31313 a 20,20 45 0 1 20,20 v 29.999999 a 20,20 135 0 1 -20,20 H 7.3131266 a 20,20 45 0 1 -19.9999996,-20 V -116.4131 a 20,20 135 0 1 19.9999996,-20 z"
     transform="translate(15.119859,231.4131)" /><path
     style="clip-rule:evenodd;fill:#111111;fill-opacity:0.85;fill-rule:evenodd;stroke-width:0;stroke-linejoin:round;stroke-miterlimit:2"
     id="rect3-3-0"
     width="370"
     height="70"
     x="-12.686873"
     y="-136.4131"
     sodipodi:type="rect"
     inkscape:path-effect="#path-effect6-9"
     d="M 7.3131266,-136.4131 H 337.31313 a 20,20 45 0 1 20,20 v 29.999999 a 20,20 135 0 1 -20,20 H 7.3131266 a 20,20 45 0 1 -19.9999996,-20 V -116.4131 a 20,20 135 0 1 19.9999996,-20 z"
     transform="translate(15.119859,421.4131)" /><path
     style="clip-rule:evenodd;fill:#111111;fill-opacity:0.85;fill-rule:evenodd;stroke-width:0;stroke-linejoin:round;stroke-miterlimit:2"
     id="rect3-3-0-0"
     width="370"
     height="70"
     x="-12.686873"
     y="-136.4131"
     sodipodi:type="rect"
     inkscape:path-effect="#path-effect6-9-1"
     d="M 7.3131266,-136.4131 H 337.31313 a 20,20 45 0 1 20,20 v 29.999999 a 20,20 135 0 1 -20,20 H 7.3131266 a 20,20 45 0 1 -19.9999996,-20 V -116.4131 a 20,20 135 0 1 19.9999996,-20 z"
     transform="translate(15.119832,515.1971)" /><path
     style="clip-rule:evenodd;fill:#111111;fill-opacity:0.85;fill-rule:evenodd;stroke-width:0;stroke-linejoin:round;stroke-miterlimit:2"
     id="rect3-3-1"
     width="370"
     height="70"
     x="-12.686873"
     y="-136.4131"
     sodipodi:type="rect"
     inkscape:path-effect="#path-effect6-2"
     d="M 7.3131266,-136.4131 H 337.31313 a 20,20 45 0 1 20,20 v 29.999999 a 20,20 135 0 1 -20,20 H 7.3131266 a 20,20 45 0 1 -19.9999996,-20 V -116.4131 a 20,20 135 0 1 19.9999996,-20 z"
     transform="translate(15.119859,326.4131)" /><rect
     x="65"
     y="205"
     width="1"
     height="40"
     style="fill:#a0a0a0"
     id="rect8"
     transform="translate(2.4329588)" /><rect
     x="65"
     y="14.999993"
     width="1"
     height="40"
     style="clip-rule:evenodd;fill:#a0a0a0;fill-rule:evenodd;stroke-linejoin:round;stroke-miterlimit:2"
     id="rect8-4"
     transform="translate(2.4329588)" /><rect
     x="65"
     y="300"
     width="1"
     height="40"
     style="fill:#a0a0a0"
     id="rect9"
     transform="translate(2.4329588)" /><rect
     x="475"
     y="109.99999"
     width="1"
     height="40"
     style="fill:#a0a0a0"
     id="rect10"
     transform="translate(-4.1413784e-5)" /><rect
     x="475"
     y="205"
     width="1"
     height="40"
     style="fill:#a0a0a0"
     id="rect11"
     transform="translate(-4.1413784e-5)" /><rect
     x="475"
     y="300"
     width="1"
     height="40"
     style="fill:#a0a0a0"
     id="rect12"
     transform="translate(-4.1413784e-5)" /><rect
     x="1144.962"
     y="205"
     width="1"
     height="40"
     style="fill:#a0a0a0"
     id="rect13"
     transform="translate(-669.96204,188.784)" /><rect
     x="1144.962"
     y="300"
     width="1"
     height="40"
     style="fill:#a0a0a0"
     id="rect14"
     transform="translate(-1079.029,93.78399)" /><path
     d="m 25.564,227.5 h -3.128 c -0.516,-0.002 -0.934,-0.42 -0.936,-0.936 v -3.128 c 0.002,-0.516 0.42,-0.934 0.936,-0.936 h 3.124 c 0.516,0.002 0.934,0.42 0.936,0.936 v 3.124 c 0,0.516 -0.416,0.936 -0.932,0.94 z M 34,226.564 v -3.128 c -0.002,-0.516 -0.42,-0.934 -0.936,-0.936 h -3.128 c -0.516,0.002 -0.934,0.42 -0.936,0.936 v 3.124 c 0.002,0.516 0.42,0.934 0.936,0.936 h 3.124 c 0.516,0 0.936,-0.416 0.94,-0.932 z m 7.5,0 v -3.128 c -0.002,-0.516 -0.42,-0.934 -0.936,-0.936 h -3.128 c -0.516,0.002 -0.934,0.42 -0.936,0.936 v 3.124 c 0.002,0.516 0.42,0.934 0.936,0.936 h 3.124 c 0.516,0 0.936,-0.416 0.94,-0.932 z m -7.5,7.5 v -3.128 C 33.998,230.42 33.58,230.002 33.064,230 h -3.128 c -0.516,0.002 -0.934,0.42 -0.936,0.936 v 3.124 c 0.002,0.516 0.42,0.934 0.936,0.936 h 3.124 c 0.516,0 0.936,-0.416 0.94,-0.932 z m -7.5,0 v -3.128 C 26.498,230.42 26.08,230.002 25.564,230 h -3.128 c -0.516,0.002 -0.934,0.42 -0.936,0.936 v 3.124 c 0.002,0.516 0.42,0.934 0.936,0.936 h 3.124 c 0.516,0 0.936,-0.416 0.94,-0.932 z m 15,0 v -3.128 C 41.498,230.42 41.08,230.002 40.564,230 h -3.128 c -0.516,0.002 -0.934,0.42 -0.936,0.936 v 3.124 c 0.002,0.516 0.42,0.934 0.936,0.936 h 3.124 c 0.516,0 0.936,-0.416 0.94,-0.932 z M 49,213.752 v 27.5 c -0.002,2.07 -1.678,3.746 -3.748,3.748 h -27.5 c -2.07,0 -3.75,-1.678 -3.752,-3.748 v -27.5 c 0,-0.996 0.396,-1.95 1.098,-2.654 0.704,-0.702 1.658,-1.098 2.654,-1.098 h 3.752 v -4.064 c 0.002,-0.514 0.418,-0.932 0.932,-0.936 h 3.124 c 0.516,0.002 0.934,0.42 0.936,0.936 V 210 h 10 v -4.064 C 36.498,205.418 36.918,205 37.436,205 h 3.124 c 0.516,0.002 0.934,0.42 0.936,0.936 V 210 h 3.752 c 0.996,0 1.95,0.396 2.654,1.098 0.702,0.704 1.098,1.658 1.098,2.654 z M 45.252,240.78 V 217.5 h -27.5 v 23.28 c 0.002,0.258 0.21,0.466 0.468,0.468 H 44.8 c 0.252,-0.01 0.45,-0.216 0.452,-0.468 z"
     style="fill:#a0a0a0;fill-rule:nonzero"
     id="path14"
     transform="translate(2.4329588)" /><path
     d="m 25,320 c 4.42,0 8,-3.58 8,-8 0,-4.42 -3.58,-8 -8,-8 -4.42,0 -8,3.58 -8,8 0,4.42 3.58,8 8,8 z m 3.168,3 H 21.832 C 15.848,323 11,327.852 11,333.832 c 0,1.2 0.972,2.168 2.168,2.168 H 36.832 C 38.032,336 39,335.032 39,333.832 39,327.852 34.152,323 28.168,323 Z m 12.776,1 h -4.616 c 2.872,2.356 4.672,5.88 4.672,9.832 0,0.8 -0.236,1.536 -0.624,2.168 H 49 c 1.108,0 2,-0.9 2,-2.056 C 51,328.472 46.528,324 40.944,324 Z M 38,320 c 3.872,0 7,-3.128 7,-7 0,-3.868 -3.128,-7 -7,-7 -1.568,0 -3.004,0.536 -4.168,1.408 0.72,1.384 1.168,2.932 1.168,4.592 0,2.22 -0.748,4.26 -1.972,5.92 1.264,1.28 3.024,2.08 4.972,2.08 z"
     style="fill:#a0a0a0;fill-rule:nonzero"
     id="path15"
     transform="translate(2.4329588)" /><path
     d="m 442.27085,110 c 0.438,-0.004 0.86,0.108 1.234,0.318 l 15.97,6.756 c 0.874,0.37 1.46,1.138 1.514,2.152 0.446,7.462 -2.28,23.734 -17.452,30.438 -0.382,0.218 -0.89,0.344 -1.266,0.336 -0.452,0.008 -0.89,-0.118 -1.344,-0.336 -15.1,-6.704 -17.822,-22.976 -17.384,-30.438 0.056,-1.014 0.646,-1.782 1.522,-2.152 l 15.964,-6.756 c 0.376,-0.21 0.806,-0.322 1.242,-0.318 z m 0.766,28.39 7.664,-7.796 c 2.188,-2.258 2.054,-6.016 -0.476,-8.132 -2.056,-1.852 -5.204,-1.508 -7.188,0.546 l -0.758,0.75 -0.82,-0.75 c -1.914,-2.054 -5.132,-2.398 -7.258,-0.546 -2.46,2.116 -2.594,5.874 -0.406,8.132 l 7.532,7.796 c 0.546,0.478 1.296,0.478 1.71,0 z"
     style="fill:#a0a0a0;fill-rule:nonzero"
     id="path16"
     transform="translate(-4.1413784e-5)" /><path
     d="m 436.25,206.876 c 0,-1.04 -0.836,-1.876 -1.874,-1.876 -1.04,0 -1.876,0.836 -1.876,1.876 V 210 c -2.758,0 -5,2.242 -5,5 h -3.124 c -1.04,0 -1.876,0.836 -1.876,1.876 0,1.038 0.836,1.874 1.876,1.874 h 3.124 v 4.376 h -3.124 c -1.04,0 -1.876,0.834 -1.876,1.874 0,1.04 0.836,1.876 1.876,1.876 h 3.124 v 4.374 h -3.124 c -1.04,0 -1.876,0.836 -1.876,1.876 0,1.038 0.836,1.874 1.876,1.874 h 3.124 c 0,2.758 2.242,5 5,5 v 3.126 c 0,1.038 0.836,1.874 1.876,1.874 1.038,0 1.874,-0.836 1.874,-1.874 V 240 h 4.376 v 3.126 c 0,1.038 0.834,1.874 1.874,1.874 1.04,0 1.876,-0.836 1.876,-1.874 V 240 h 4.374 v 3.126 c 0,1.038 0.836,1.874 1.876,1.874 1.038,0 1.874,-0.836 1.874,-1.874 V 240 c 2.758,0 5,-2.242 5,-5 h 3.126 c 1.038,0 1.874,-0.836 1.874,-1.874 0,-1.04 -0.836,-1.876 -1.874,-1.876 H 457.5 v -4.374 h 3.126 c 1.038,0 1.874,-0.836 1.874,-1.876 0,-1.04 -0.836,-1.874 -1.874,-1.874 H 457.5 v -4.376 h 3.126 c 1.038,0 1.874,-0.836 1.874,-1.874 0,-1.04 -0.836,-1.876 -1.874,-1.876 H 457.5 c 0,-2.758 -2.242,-5 -5,-5 v -3.124 c 0,-1.04 -0.836,-1.876 -1.874,-1.876 -1.04,0 -1.876,0.836 -1.876,1.876 V 210 h -4.374 v -3.124 c 0,-1.04 -0.836,-1.876 -1.876,-1.876 -1.04,0 -1.874,0.836 -1.874,1.876 V 210 H 436.25 Z M 435,215 h 15 c 1.382,0 2.5,1.118 2.5,2.5 v 15 c 0,1.382 -1.118,2.5 -2.5,2.5 h -15 c -1.382,0 -2.5,-1.118 -2.5,-2.5 v -15 c 0,-1.382 1.118,-2.5 2.5,-2.5 z m 15,2.5 h -15 v 15 h 15 z"
     style="fill:#a0a0a0;fill-rule:nonzero"
     id="path17"
     transform="translate(-4.1413784e-5)" /><path
     d="m 458.126,302.5 h -23.75 c -2.416,0 -4.376,1.964 -4.376,4.376 v 25 c 0,1.032 -0.842,1.874 -1.874,1.874 -1.034,0 -1.876,-0.844 -1.876,-1.874 V 308.75 c 0,-1.036 -0.84,-1.874 -1.874,-1.874 -1.036,0 -1.876,0.838 -1.876,1.874 v 23.126 c 0,3.1 2.524,5.624 5.626,5.624 h 27.5 c 3.79,0 6.874,-3.084 6.874,-6.874 v -23.75 c 0,-2.412 -1.96,-4.376 -4.374,-4.376 z m 0.624,28.126 c 0,1.722 -1.402,3.124 -3.124,3.124 H 433.43 c 0.202,-0.586 0.32,-1.218 0.32,-1.874 v -25 c 0,-0.346 0.28,-0.626 0.626,-0.626 h 23.75 c 0.344,0 0.624,0.28 0.624,0.626 z m -15.624,-9.376 h -5 c -1.032,0 -1.876,0.844 -1.876,1.876 0,1.03 0.844,1.874 1.876,1.874 h 5 c 1.038,0 1.874,-0.836 1.874,-1.874 0,-1.04 -0.836,-1.876 -1.874,-1.876 z m 11.25,0 h -5 c -1.032,0 -1.876,0.844 -1.876,1.876 0,1.03 0.844,1.874 1.876,1.874 h 5 c 1.034,0 1.874,-0.84 1.874,-1.874 0,-1.036 -0.836,-1.876 -1.874,-1.876 z m -11.25,6.25 h -5 c -1.036,0 -1.876,0.84 -1.876,1.876 0,1.034 0.84,1.874 1.876,1.874 h 5 c 1.034,0 1.874,-0.84 1.874,-1.874 0,-1.036 -0.836,-1.876 -1.874,-1.876 z m 11.25,0 h -5 c -1.032,0 -1.876,0.844 -1.876,1.876 0,1.03 0.84,1.874 1.876,1.874 h 5 c 1.034,0 1.874,-0.84 1.874,-1.874 0,-1.036 -0.836,-1.876 -1.874,-1.876 z m -0.626,-18.75 h -15 c -1.38,0 -2.5,1.12 -2.5,2.5 v 5 c 0,1.38 1.12,2.5 2.5,2.5 h 15 c 1.38,0 2.5,-1.12 2.5,-2.5 v -5 c 0,-1.382 -1.118,-2.5 -2.5,-2.5 z"
     style="fill:#a0a0a0;fill-rule:nonzero"
     id="path18"
     transform="translate(-4.1413784e-5)" /><path
     d="m 1106.462,209 c 4.389,0 8,3.611 8,8 0,4.389 -3.611,8 -8,8 -4.389,0 -8,-3.611 -8,-8 0,-4.389 3.611,-8 8,-8 z m -2.856,19 h 5.712 c 1.288,0 2.525,0.219 3.675,0.619 -0.343,1.069 -0.531,2.2 -0.531,3.381 0,3.719 1.844,7.006 4.675,9 h -22.819 c -1.025,0 -1.856,-0.831 -1.856,-1.856 0,-6.156 4.988,-11.144 11.144,-11.144 z m 10.856,4 c 0,-4.937 4.063,-9 9,-9 4.937,0 9,4.063 9,9 0,4.937 -4.063,9 -9,9 -4.937,0 -9,-4.063 -9,-9 z m 9,-5 c -0.55,0 -1,0.45 -1,1 v 4 c 0,0.55 0.45,1 1,1 h 3 c 0.55,0 1,-0.45 1,-1 0,-0.55 -0.45,-1 -1,-1 h -2 v -3 c 0,-0.55 -0.45,-1 -1,-1 z"
     style="fill:#a0a0a0;fill-rule:nonzero"
     id="path19"
     transform="translate(-669.96204,186.784)" /><path
     d="m 1094.962,302.5 c 1.383,0 2.5,1.117 2.5,2.5 v 26.25 c 0,0.688 0.563,1.25 1.25,1.25 h 31.25 c 1.383,0 2.5,1.117 2.5,2.5 0,1.383 -1.117,2.5 -2.5,2.5 h -31.25 c -3.453,0 -6.25,-2.797 -6.25,-6.25 V 305 c 0,-1.383 1.117,-2.5 2.5,-2.5 z m 10,15 c 1.383,0 2.5,1.117 2.5,2.5 v 5 c 0,1.383 -1.117,2.5 -2.5,2.5 -1.383,0 -2.5,-1.117 -2.5,-2.5 v -5 c 0,-1.383 1.117,-2.5 2.5,-2.5 z m 10,-5 V 325 c 0,1.383 -1.117,2.5 -2.5,2.5 -1.383,0 -2.5,-1.117 -2.5,-2.5 v -12.5 c 0,-1.383 1.117,-2.5 2.5,-2.5 1.383,0 2.5,1.117 2.5,2.5 z m 5,2.5 c 1.383,0 2.5,1.117 2.5,2.5 v 7.5 c 0,1.383 -1.117,2.5 -2.5,2.5 -1.383,0 -2.5,-1.117 -2.5,-2.5 v -7.5 c 0,-1.383 1.117,-2.5 2.5,-2.5 z m 10,-7.5 V 325 c 0,1.383 -1.117,2.5 -2.5,2.5 -1.383,0 -2.5,-1.117 -2.5,-2.5 v -17.5 c 0,-1.383 1.117,-2.5 2.5,-2.5 1.383,0 2.5,1.117 2.5,2.5 z"
     style="fill:#a0a0a0;fill-rule:nonzero"
     id="path20"
     transform="translate(-1079.029,93.78399)" /><path
     d="m 40.873413,20.17004 c 8.020401,0 14.522223,6.58552 14.522223,14.70917 0,7.9544 -6.233731,14.4341 -14.022976,14.70064 l -0.499247,0.008 H 28.434576 c -8.020402,0 -14.522216,-6.58552 -14.522216,-14.70917 0,-7.95441 6.233731,-14.43411 14.022969,-14.70064 l 0.499247,-0.008 z m -0.514256,15.75982 c -1.43222,0 -2.593256,1.17599 -2.593256,2.62664 0,1.45065 1.161036,2.62664 2.593256,2.62664 1.432212,0 2.593256,-1.17599 2.593256,-2.62664 0,-1.45065 -1.161044,-2.62664 -2.593256,-2.62664 z M 26.355583,28.57528 c -0.787716,0 -1.438721,0.59289 -1.541739,1.36213 l -0.0142,0.21385 v 3.14776 l -3.111898,0.001 c -0.859335,0 -1.555957,0.70559 -1.555957,1.57598 0,0.79786 0.585356,1.45725 1.344823,1.5616 l 0.211134,0.0144 3.111898,-0.002 v 3.15617 c 0,0.87039 0.69663,1.57598 1.55595,1.57598 0.787723,0 1.438728,-0.59289 1.541754,-1.36213 l 0.0142,-0.21385 V 36.45 l 3.111906,0.002 c 0.859335,0 1.55595,-0.70559 1.55595,-1.57598 0,-0.79786 -0.585349,-1.45724 -1.344816,-1.5616 l -0.211134,-0.0144 -3.111906,-0.001 v -3.14776 c 0,-0.87039 -0.696622,-1.57598 -1.555957,-1.57598 z m 18.15278,0 c -1.43222,0 -2.593257,1.17598 -2.593257,2.62663 0,1.45066 1.161037,2.62664 2.593257,2.62664 1.432212,0 2.593256,-1.17598 2.593256,-2.62664 0,-1.45065 -1.161044,-2.62663 -2.593256,-2.62663 z"
     id="🎨-Color"
     style="fill:#a0a0a0;fill-opacity:1;fill-rule:nonzero;stroke:none;stroke-width:2.08791"
     transform="translate(2.4329588)" /></svg>
